<?xml version="1.0" standalone="no"?>
<!DOCTYPE svg PUBLIC "-//W3C//DTD SVG 1.0//EN" "http://www.w3.org/TR/2001/REC-SVG-20010904/DTD/svg10.dtd">
<svg xmlns="http://www.w3.org/2000/svg" xmlns:xlink="http://www.w3.org/1999/xlink" id="body_1" width="100" height="75">

<g transform="matrix(0.6666667 0 0 0.6637168 0 0)">
	<g transform="matrix(0.8828125 0 0 0.8828125 18.499998 -0)">
        <path d="M75.701 65.603C 73.367 64.835 70.006996 65 65.620995 65L65.620995 65L47.999992 65L47.999992 88L66.843994 88C 69.787994 88 71.855995 87.685 73.047 87.465C 75.145996 87.089 76.901 86.361 78.311 85.482994C 79.71999 84.606995 80.879 83.27799 81.788994 81.602C 82.69699 79.925995 83.15199 77.965 83.15199 75.771996C 83.15199 73.203995 82.493996 71.231995 81.176994 69.336C 79.86099 67.439995 78.035995 66.371 75.701 65.603zM73.282 55.087C 75.599 54.399002 77.346 53.197002 78.520996 51.600002C 79.697 50.002003 80.284 47.969 80.284 45.556004C 80.284 43.270004 79.73499 41.242004 78.63799 39.502003C 77.54099 37.762 75.97599 37.089005 73.938995 36.446003C 71.90199 35.805004 68.409 36.000004 63.458996 36.000004L63.458996 36.000004L47.999996 36.000004L47.999996 56.000004L64.587 56.000004C 68.629 56.000004 71.526 55.620003 73.282 55.087006zM126 18.625C 126 9.443 118.557 2 109.375 2L109.375 2L17.625 2C 8.443 2 1 9.443 1 18.625L1 18.625L1 110.375C 1 119.557 8.443 127 17.625 127L17.625 127L109.375 127C 118.557 127 126 119.557 126 110.375L126 110.375L126 18.625zM90.553 84.745C 89.191 87.518005 87.506004 89.656006 85.501 91.16C 83.495 92.664 80.979996 93.94 77.957 94.708C 74.935 95.477 71.229004 96 66.844 96L66.844 96L39 96L39 27L66.42 27C 71.684 27 75.905 27.609 79.085 29.002C 82.266 30.397001 84.756 32.499 86.559 35.397C 88.36 38.295 89.261 41.304 89.261 44.468C 89.261 47.413 88.461 50.176 86.864 52.775997C 85.266 55.378 82.853 57.469997 79.627 59.067997C 83.793 60.289997 86.997 62.371998 89.237 65.315994C 91.477 68.260994 92.597 71.73799 92.597 75.74799C 92.597 78.97499 91.916 81.97299 90.553 84.744995z" stroke="none" fill="#5B4282" fill-rule="nonzero" />
	</g>
</g>
</svg>