<?xml version="1.0" standalone="no"?>
<!DOCTYPE svg PUBLIC "-//W3C//DTD SVG 1.0//EN" "http://www.w3.org/TR/2001/REC-SVG-20010904/DTD/svg10.dtd">
<svg xmlns="http://www.w3.org/2000/svg" xmlns:xlink="http://www.w3.org/1999/xlink" id="body_1" width="100" height="75">

<g transform="matrix(0.6666667 0 0 0.6637168 0 0)">
	<g transform="matrix(3.53125 0 0 3.53125 18.499998 -0)">
        <path d="M5.902 27.201L3.656 2L28.344 2L26.095 27.197L15.985 30L5.902 27.201" stroke="none" fill="#1572B6" fill-rule="nonzero" />
        <path d="M16 27.858L24.17 25.593L26.092 4.061L16 4.061L16 27.858" stroke="none" fill="#33A9DC" fill-rule="nonzero" />
        <path d="M16 13.191L20.09 13.191L20.372 10.026L16 10.026L16 6.935L16.011 6.935L23.75 6.935L23.676 7.764L22.917 16.282L16 16.282L16 13.191" stroke="none" fill="#FFFFFF" fill-rule="nonzero" />
        <path d="M16.019 21.218L16.005 21.222L12.563 20.292L12.343 17.827L10.67 17.827L9.24 17.827L9.673 22.68L16.004 24.438L16.019 24.434L16.019 21.218" stroke="none" fill="#EBEBEB" fill-rule="nonzero" />
        <path d="M19.827 16.151L19.455 20.29L16.008 21.22L16.008 24.436L22.344 22.68L22.391 22.158L22.928 16.151L19.827 16.151" stroke="none" fill="#FFFFFF" fill-rule="nonzero" />
        <path d="M16.011 6.935L16.011 8.855L16.011 10.018L16.011 10.026L8.555 10.026L8.545 10.026L8.483 9.331L8.342 7.764L8.268 6.935L16.011 6.935" stroke="none" fill="#EBEBEB" fill-rule="nonzero" />
        <path d="M16 13.191L16 15.111L16 16.274L16 16.282L12.611 16.282L12.601 16.282L12.539 15.587L12.399 14.02L12.325 13.191L16 13.191" stroke="none" fill="#EBEBEB" fill-rule="nonzero" />
	</g>
</g>
</svg>