<?xml version="1.0" standalone="no"?>
<!DOCTYPE svg PUBLIC "-//W3C//DTD SVG 1.0//EN" "http://www.w3.org/TR/2001/REC-SVG-20010904/DTD/svg10.dtd">
<svg xmlns="http://www.w3.org/2000/svg" xmlns:xlink="http://www.w3.org/1999/xlink" id="body_1" width="100" height="50">

<defs>
                    <clipPath  id="1">

                        <path clip-rule="evenodd" d="M166.826 402.017C 172.59401 384.371 174.782 352.891 191.656 352.891C 192.94 352.891 194.238 353.017 195.542 353.26498C 180.20201 356.84097 178.382 387.97897 169.022 404.103C 168.27516 403.4229 167.54285 402.7276 166.825 402.017" />                    </clipPath>
                        <clipPath  id="2">

                            <path clip-rule="evenodd" d="M195.484 352.88L166.76799 352.88L166.76799 404.092L195.484 404.092L195.484 352.88z" />                        </clipPath>
                            <clipPath  id="3">

                                <path clip-rule="evenodd" d="M195.484 404.093L195.484 352.88L166.76799 352.88L166.76799 404.092L195.484 404.092L195.484 404.093z" />                            </clipPath>
    <linearGradient transform="matrix(1 0 0 1 0 0)"  id="832" x1="181.125" y1="414.088" x2="181.125" y2="337.71">
        <stop stop-color="#0994DC" offset="0%"/>
        <stop stop-color="#127BCA" offset="100%"/>
    </linearGradient>
                    <clipPath  id="4">

                        <path clip-rule="evenodd" d="M169.023 404.103C 178.383 387.979 180.20099 356.841 195.543 353.26498C 196.746 353.48697 197.956 353.82098 199.166 354.245C 185.396 360.992 181.59 391.225 170.961 405.78198C 170.317 405.24597 169.661 404.68698 169.024 404.10397" />                    </clipPath>
                        <clipPath  id="5">

                            <path clip-rule="evenodd" d="M199.257 353.196L169.117 353.196L169.117 405.713L199.257 405.713L199.257 353.196z" />                        </clipPath>
                            <clipPath  id="6">

                                <path clip-rule="evenodd" d="M199.257 405.713L199.257 353.196L169.117 353.196L169.117 405.713L199.257 405.713z" />                            </clipPath>
    <linearGradient transform="matrix(1 0 0 1 0 0)"  id="1880" x1="184.188" y1="415.963" x2="184.188" y2="337.638">
        <stop stop-color="#0E76BC" offset="0%"/>
        <stop stop-color="#00ADEF" offset="100%"/>
    </linearGradient>
                    <clipPath  id="7">

                        <path clip-rule="evenodd" d="M185.528 413.668L214.185 413.668L214.185 360.46L185.528 360.46L185.528 413.667L185.528 413.668z" />                    </clipPath>
                        <clipPath  id="8">

                            <path clip-rule="evenodd" d="M185.532 360.462L214.132 360.462L214.132 413.668L185.532 413.668L185.532 360.462z" />                        </clipPath>
                            <clipPath  id="9">

                                <path clip-rule="evenodd" d="M209.912 360.462L214.147 364.16202C 208.283 381.726 206.184 413.65802 189.192 413.65802C 187.96266 413.65762 186.73605 413.54282 185.528 413.31503C 201.005 409.46902 202.988 375.79202 209.912 360.45203" />                            </clipPath>
                                <clipPath  id="10">

                                    <path clip-rule="evenodd" d="M185.566 413.666L214.18599 413.666L214.18599 360.46L185.566 360.46L185.566 413.66498L185.566 413.666z" />                                </clipPath>
                                    <clipPath  id="11">

                                        <path clip-rule="evenodd" d="M185.566 360.46L185.566 413.66498L214.18599 413.66498L214.18599 360.46L185.566 360.46z" />                                    </clipPath>
    <linearGradient transform="matrix(1 0 0 1 0 0)"  id="3449" x1="199.875" y1="354.65" x2="199.875" y2="416.972">
        <stop stop-color="#1C63B7" offset="0%"/>
        <stop stop-color="#33BDF2" offset="100%"/>
    </linearGradient>
                    <clipPath  id="12">

                        <path clip-rule="evenodd" d="M182.5 413.692L189.182 413.692L189.182 413.32498L182.5 413.32498L182.5 413.692z" />                    </clipPath>
                        <clipPath  id="13">

                            <path clip-rule="evenodd" d="M182.52 413.325L189.188 413.325L189.188 413.69202L182.52 413.69202L182.52 413.325z" />                        </clipPath>
                    <clipPath  id="14">

                        <path clip-rule="evenodd" d="M181.57 412.222C 195.43301 404.972 196.63701 372.136 207.70001 358.802C 208.44002 359.324 209.17502 359.878 209.90001 360.462C 202.977 375.802 200.99501 409.482 185.52 413.325C 184.198 413.079 182.88 412.725 181.56 412.22202" />                    </clipPath>
                        <clipPath  id="15">

                            <path clip-rule="evenodd" d="M209.982 358.734L181.642 358.734L181.642 413.26L209.982 413.26L209.982 358.734z" />                        </clipPath>
                            <clipPath  id="16">

                                <path clip-rule="evenodd" d="M209.982 413.26L209.982 358.734L181.642 358.734L181.642 413.26L209.982 413.26z" />                            </clipPath>
    <linearGradient transform="matrix(1 0 0 1 0 0)"  id="4926" x1="195.813" y1="423.9" x2="195.813" y2="342.579">
        <stop stop-color="#166AB8" offset="0%"/>
        <stop stop-color="#0798DD" offset="100%"/>
    </linearGradient>
                    <clipPath  id="17">

                        <path clip-rule="evenodd" d="M170.96 405.78C 181.59001 391.224 185.395 360.98 199.16501 354.243C 201.99501 355.241 204.843 356.77502 207.70001 358.80002C 196.63701 372.135 195.43301 404.97003 181.57 412.22003C 178.05 410.91202 174.516 408.73203 170.97 405.78003" />                    </clipPath>
                        <clipPath  id="18">

                            <path clip-rule="evenodd" d="M207.683 354.228L170.943 354.228L170.943 412.208L207.683 412.208L207.683 354.228z" />                        </clipPath>
                            <clipPath  id="19">

                                <path clip-rule="evenodd" d="M207.683 412.207L207.683 354.227L170.943 354.227L170.943 412.207L207.683 412.207z" />                            </clipPath>
    <linearGradient transform="matrix(1 0 0 1 0 0)"  id="5982" x1="189.313" y1="423.525" x2="189.313" y2="337.051">
        <stop stop-color="#124379" offset="0%"/>
        <stop stop-color="#165197" offset="100%"/>
    </linearGradient>
                    <clipPath  id="20">

                        <path clip-rule="evenodd" d="M154.597 406.73L166.824 406.73L166.824 387.26L154.597 387.26L154.597 406.73z" />                    </clipPath>
                        <clipPath  id="21">

                            <path clip-rule="evenodd" d="M154.605 387.26L166.81099 387.26L166.81099 406.732L154.605 406.732L154.605 387.26z" />                        </clipPath>
                    <clipPath  id="22">

                        <path clip-rule="evenodd" d="M221.458 415.068L271.335 415.068L271.335 352.904L221.458 352.904L221.458 415.068z" />                    </clipPath>
                        <clipPath  id="23">

                            <path clip-rule="evenodd" d="M221.504 352.904L271.33 352.904L271.33 415.03598L221.50398 415.03598L221.50398 352.904L221.504 352.904z" />                        </clipPath>
                            <clipPath  id="24">

                                <path clip-rule="evenodd" d="M262.806 415.036C 254.966 384.80002 238.586 360.51102 224.856 354.388C 224.848 354.382 224.836 354.378 224.83301 354.378C 224.58768 354.26807 224.34024 354.1627 224.091 354.06198C 224.059 354.05197 224.029 354.038 223.991 354.02597C 223.92099 353.99597 223.851 353.97397 223.791 353.94598C 223.758 353.938 223.727 353.921 223.698 353.909L223.698 353.909L223.353 353.786C 223.305 353.771 223.258 353.75302 223.213 353.738C 223.16 353.724 223.11299 353.7 223.043 353.682C 222.993 353.66 222.938 353.64502 222.88 353.624C 222.83 353.60898 222.778 353.597 222.73401 353.576C 222.634 353.546 222.54001 353.522 222.44 353.48898C 222.397 353.47897 222.36 353.464 222.31601 353.45398C 222.25401 353.43597 222.18301 353.41898 222.11801 353.40097C 222.07 353.38898 222.03201 353.37598 221.98401 353.36597C 221.914 353.34296 221.83601 353.32596 221.768 353.30795L221.768 353.30795L221.504 353.25296C 222.13222 353.01923 222.7977 352.90164 223.468 352.90598C 236.49 352.90598 249.615 376.23898 271.338 415.03796L271.338 415.03796L262.808 415.03796L262.806 415.036z" />                            </clipPath>
                                <clipPath  id="25">

                                    <path clip-rule="evenodd" d="M221.457 415.068L271.287 415.068L271.287 352.936L221.45699 352.936L221.45699 415.068L221.457 415.068z" />                                </clipPath>
                                    <clipPath  id="26">

                                        <path clip-rule="evenodd" d="M221.458 352.935L221.458 415.068L271.288 415.068L271.288 352.935L221.458 352.935z" />                                    </clipPath>
    <linearGradient transform="matrix(1 0 0 1 0 0)"  id="8838" x1="246.375" y1="356.244" x2="246.375" y2="416.954">
        <stop stop-color="#136AB4" offset="0%"/>
        <stop stop-color="#59CAF5" offset="100%"/>
    </linearGradient>
                    <clipPath  id="27">

                        <path clip-rule="evenodd" d="M111.2 413.692L156.552 413.692L156.552 351.26L111.2 351.26L111.2 413.693L111.2 413.692z" />                    </clipPath>
                        <clipPath  id="28">

                            <path clip-rule="evenodd" d="M111.217 351.26L156.564 351.26L156.564 413.694L111.216995 413.694L111.216995 351.26L111.217 351.26z" />                        </clipPath>
                <clipPath  id="29">

                    <path clip-rule="evenodd" d="M120.886 365.985C 134.256 391.748 140.591 408.055 151.77 412.465C 140.244 407.953 127.270004 390.937 120.886 365.985" />                </clipPath>
                    <clipPath  id="30">

                        <path clip-rule="evenodd" d="M120.87 412.433L151.755 412.433L151.755 365.95L120.87 365.95L120.87 412.432L120.87 412.433z" />                    </clipPath>
                        <clipPath  id="31">

                            <path clip-rule="evenodd" d="M120.87 365.952L120.87 412.432L151.755 412.432L151.755 365.952L120.87 365.952z" />                        </clipPath>
    <linearGradient transform="matrix(1 0 0 1 0 0)"  id="10209" x1="136.313" y1="354.65" x2="136.313" y2="416.813">
        <stop stop-color="#318ED5" offset="0%"/>
        <stop stop-color="#38A7E4" offset="100%"/>
    </linearGradient>
                        <clipPath  id="32">

                            <path clip-rule="evenodd" d="M125.885 387.26L154.607 387.26L154.607 351.3L125.884995 351.3L125.884995 387.27L125.885 387.26z" />                        </clipPath>
                            <clipPath  id="33">

                                <path clip-rule="evenodd" d="M125.895 351.3L154.595 351.3L154.595 387.27L125.895004 387.27L125.895004 351.3L125.895 351.3z" />                            </clipPath>
                                <clipPath  id="34">

                                    <path clip-rule="evenodd" d="M126.956 351.382L126.714005 351.35397C 126.69401 351.34998 126.68201 351.34998 126.66701 351.347L126.66701 351.347L126.461006 351.327C 126.451004 351.327 126.438 351.324 126.42801 351.324L126.42801 351.324L125.93501 351.289L125.88501 351.289C 139.417 351.669 145.60301 358.443 148.67001 368.269L148.67001 368.269L154.6 387.269C 148.932 379.29202 143.238 369.785 137.513 359.12903C 134.753 353.99402 130.553 351.84903 126.956 351.39203" />                                </clipPath>
                                    <clipPath  id="35">

                                        <path clip-rule="evenodd" d="M125.894 387.258L154.608 387.258L154.608 351.288L125.894 351.288L125.894 387.258z" />                                    </clipPath>
                                        <clipPath  id="36">

                                            <path clip-rule="evenodd" d="M125.893 351.287L125.893 387.257L154.607 387.257L154.607 351.287L125.89299 351.287L125.893 351.287z" />                                        </clipPath>
    <linearGradient transform="matrix(1 0 0 1 0 0)"  id="12079" x1="140.25" y1="354.463" x2="140.25" y2="414.888">
        <stop stop-color="#05A1E6" offset="0%"/>
        <stop stop-color="#05A1E6" offset="100%"/>
    </linearGradient>
                    <clipPath  id="37">

                        <path clip-rule="evenodd" d="M126.956 351.387L126.956 351.382C 130.554 351.84 134.754 353.982 137.513 359.119C 143.238 369.76898 148.935 379.28198 154.595 387.25897C 156.657 393.72696 158.355 398.67596 160.025 402.44098C 148.739 391.69897 137.40799 373.835 126.95699 351.38696" />                    </clipPath>
                        <clipPath  id="38">

                            <path clip-rule="evenodd" d="M127.028 402.367L160.09601 402.367L160.09601 351.307L127.02801 351.307L127.02801 402.367L127.028 402.367z" />                        </clipPath>
                            <clipPath  id="39">

                                <path clip-rule="evenodd" d="M127.028 351.307L127.028 402.367L160.09601 402.367L160.09601 351.307L127.02801 351.307L127.028 351.307z" />                            </clipPath>
    <linearGradient transform="matrix(1 0 0 1 0 0)"  id="13197" x1="143.563" y1="351.307" x2="143.563" y2="402.367">
        <stop stop-color="#1959A6" offset="0%"/>
        <stop stop-color="#7EC5EA" offset="100%"/>
    </linearGradient>
                    <clipPath  id="40">

                        <path clip-rule="evenodd" d="M156.1 413.58C 156.06001 413.572 156.03 413.56998 156 413.567C 155.94 413.555 155.875 413.54398 155.812 413.53897L155.812 413.53897L155.69899 413.52698L155.499 413.49197C 155.467 413.48996 155.43599 413.48398 155.411 413.48196L155.411 413.48196L154.976 413.40497C 154.958 413.40198 154.94 413.39697 154.926 413.39697L154.926 413.39697L154.726 413.35696L154.62 413.32697L154.415 413.28696L154.319 413.26395L153.602 413.07794C 153.582 413.06995 153.54901 413.06393 153.51901 413.05295C 153.449 413.03595 153.37901 413.01096 153.30301 412.98694L153.30301 412.98694L153.205 412.95993L152.99 412.89493C 152.964 412.88794 152.94 412.87494 152.91501 412.87494L152.91501 412.87494L152.41801 412.70294L152.17801 412.61694L152.08202 412.57693C 152.01001 412.55695 151.93602 412.52695 151.88202 412.50192C 151.85902 412.48993 151.83002 412.47992 151.81201 412.46692C 140.63202 408.05493 134.298 391.74893 120.92801 365.9869C 119.69242 361.14288 118.75106 356.22864 118.10901 351.2709L118.10901 351.2709L118.82601 351.2709L125.48901 351.2809L125.55202 351.2809L125.97702 351.29092L126.47002 351.32593C 126.48002 351.32593 126.49302 351.32892 126.500015 351.32892C 126.570015 351.33893 126.640015 351.34393 126.70602 351.3489C 126.724014 351.3519 126.73402 351.3519 126.75602 351.3559C 126.82902 351.36288 126.91602 351.3719 126.99802 351.3839L126.99802 351.3839L126.99802 351.38892C 137.44801 373.8369 148.78001 391.70093 160.06601 402.44293C 161.30801 405.25592 162.53001 407.40292 163.871 409.02792C 163.086 410.3539 162.229 411.45792 161.271 412.26392C 161.261 412.26892 161.25099 412.2719 161.243 412.28192C 161.191 412.30392 161.138 412.32892 161.08499 412.35693C 161.03305 412.38535 160.98036 412.41235 160.92699 412.43793C 160.87698 412.45792 160.82098 412.48492 160.77298 412.51294C 160.71034 412.5332 160.65001 412.56003 160.59299 412.59293C 160.54298 412.60892 160.49998 412.63293 160.45299 412.65292C 160.35294 412.6913 160.2539 412.73233 160.15599 412.7759L160.15599 412.7759L160.02998 412.8259C 159.95515 412.85098 159.88173 412.88 159.80998 412.9129C 159.77199 412.9229 159.73198 412.9389 159.68999 412.9509C 159.58398 412.9859 159.484 413.0239 159.38599 413.0569C 159.36899 413.0619 159.36299 413.0619 159.359 413.0669C 159.239 413.10388 159.124 413.13388 159.004 413.1669C 158.976 413.1799 158.954 413.1849 158.924 413.1929C 158.818 413.22092 158.724 413.25092 158.62799 413.27692C 158.603 413.2799 158.57799 413.28693 158.55798 413.2929C 158.31232 413.35742 158.0641 413.4118 157.81398 413.4559C 157.79099 413.45792 157.76099 413.4659 157.73598 413.4719L157.73598 413.4719L157.41397 413.52188C 157.39397 413.5319 157.37398 413.5319 157.35097 413.5359L157.35097 413.5359L156.96797 413.58588C 156.94797 413.58887 156.92596 413.59387 156.90097 413.59387C 156.80096 413.60986 156.70497 413.61688 156.60896 413.6259C 156.44597 413.6139 156.29297 413.59888 156.13896 413.5839" />                    </clipPath>
                        <clipPath  id="41">

                            <path clip-rule="evenodd" d="M119.313 343.45L107.270004 411.75L162.314 421.455L174.357 353.15497L119.312996 343.44897L119.313 343.45z" />                        </clipPath>
                            <clipPath  id="42">

                                <path clip-rule="evenodd" d="M119.313 343.45L107.270004 411.75L162.313 421.456L174.356 353.156L119.312004 343.45L119.313 343.45z" />                            </clipPath>
    <linearGradient transform="matrix(1 0 0 1 0 0)"  id="16939" x1="145.313" y1="354.65" x2="135.55" y2="410.014">
        <stop stop-color="#165096" offset="0%"/>
        <stop stop-color="#0D82CA" offset="100%"/>
    </linearGradient>
                    <clipPath  id="43">

                        <path clip-rule="evenodd" d="M232.177 398.296L225.709 377.666C 232.769 387.37997 239.721 399.59598 246.339 413.69897C 238.619 411.27197 234.49901 405.72296 232.17601 398.29697" />                    </clipPath>
                        <clipPath  id="44">

                            <path clip-rule="evenodd" d="M225.748 413.707L246.378 413.707L246.378 377.675L225.748 377.675L225.748 413.707z" />                        </clipPath>
                            <clipPath  id="45">

                                <path clip-rule="evenodd" d="M225.748 377.675L225.748 413.70798L246.378 413.70798L246.378 377.675L225.748 377.675z" />                            </clipPath>
    <linearGradient transform="matrix(1 0 0 1 0 0)"  id="17914" x1="236.063" y1="385.963" x2="236.063" y2="414.896">
        <stop stop-color="#05A1E6" offset="0%"/>
        <stop stop-color="#0495D6" offset="100%"/>
    </linearGradient>
                        <clipPath  id="46">

                            <path clip-rule="evenodd" d="M214.456 421.616L273.156 421.616L273.156 347.988L214.45601 347.988L214.45601 421.616L214.456 421.616z" />                        </clipPath>
                            <clipPath  id="47">

                                <path clip-rule="evenodd" d="M224.852 354.388L262.80902 354.388L262.80902 415.036L224.85202 415.036L224.85202 354.388L224.852 354.388z" />                            </clipPath>
                                <clipPath  id="48">

                                    <path clip-rule="evenodd" d="M225.933 354.903L224.857 354.388C 238.58699 360.511 254.965 384.8 262.807 415.036L262.807 415.036L261.207 415.036C 243.193 382.85602 237.399 361.316 225.924 354.903" />                                </clipPath>
                                    <clipPath  id="49">

                                        <path clip-rule="evenodd" d="M273.147 413.298L261.631 347.998L214.45601 356.31598L225.97202 421.61597L273.147 413.29797L273.147 413.298z" />                                    </clipPath>
                                        <clipPath  id="50">

                                            <path clip-rule="evenodd" d="M273.147 413.298L261.631 347.998L214.45601 356.31598L225.97202 421.61597L273.147 413.29797L273.147 413.298z" />                                        </clipPath>
    <linearGradient transform="matrix(1 0 0 1 0 0)"  id="19567" x1="249.594" y1="417.65" x2="237.83" y2="350.933">
        <stop stop-color="#38A7E4" offset="0%"/>
        <stop stop-color="#0E88D3" offset="100%"/>
    </linearGradient>
                    <clipPath  id="51">

                        <path clip-rule="evenodd" d="M256.184 415.036L249.506 415.036C 249.28099 415.036 249.06099 415.031 248.841 415.028L248.841 415.028L248.213 415.02103L248.198 415.02103L246.931 414.96103L246.331 413.69904C 239.711 399.59705 232.75899 387.37903 225.70099 377.66605C 222.38098 367.45206 219.94699 361.25305 216.96098 357.60605C 218.23898 355.42905 219.72098 353.89804 221.49098 353.24606C 221.54298 353.26306 221.58298 353.27005 221.62798 353.27905C 221.63797 353.28604 221.64798 353.28604 221.65797 353.28604C 221.68797 353.29105 221.72098 353.30405 221.75298 353.30603C 221.82597 353.32303 221.90297 353.33902 221.97298 353.36404L221.97298 353.36404L222.10698 353.39905C 222.17198 353.41705 222.24298 353.43405 222.30498 353.44904C 222.34497 353.46704 222.38498 353.47604 222.42897 353.48602C 222.53197 353.519 222.62398 353.54102 222.72298 353.57303C 222.76698 353.59302 222.81598 353.60904 222.86897 353.62103C 222.92397 353.64102 222.98198 353.65704 223.03197 353.68103C 223.09196 353.69904 223.14996 353.71103 223.20197 353.73404C 223.24797 353.74603 223.29796 353.76703 223.34196 353.78705C 223.45697 353.82706 223.56996 353.86206 223.68896 353.90704C 223.71896 353.91705 223.74896 353.93506 223.78197 353.94104C 223.85197 353.97104 223.92497 353.99103 223.98196 354.02505C 224.00996 354.03506 224.03996 354.04807 224.08197 354.05804C 224.3312 354.15878 224.57864 354.26416 224.82397 354.37405C 224.82597 354.37405 224.83897 354.37906 224.84697 354.38406C 225.20396 354.54205 225.56297 354.71606 225.91997 354.89908C 237.39796 361.31107 243.19197 382.85107 261.20596 415.03207L261.20596 415.03207L256.17395 415.03207L256.184 415.036z" />                    </clipPath>
                        <clipPath  id="52">

                            <path clip-rule="evenodd" d="M261.187 353.24L216.93701 353.24L216.93701 415.03998L261.187 415.03998L261.187 353.24z" />                        </clipPath>
                            <clipPath  id="53">

                                <path clip-rule="evenodd" d="M261.187 415.03L261.187 353.23L216.93701 353.23L216.93701 415.03L261.187 415.03z" />                            </clipPath>
    <linearGradient transform="matrix(1 0 0 1 0 0)"  id="22003" x1="239.063" y1="415.213" x2="239.063" y2="352.093">
        <stop stop-color="#168CD4" offset="0%"/>
        <stop stop-color="#154B8D" offset="100%"/>
    </linearGradient>
                        <clipPath  id="54">

                            <path clip-rule="evenodd" d="M154.208 420.9L184.288 420.9L184.288 402.732L154.208 402.732L154.208 420.9z" />                        </clipPath>
                            <clipPath  id="55">

                                <path clip-rule="evenodd" d="M155.173 407.816L182.52 407.816L182.52 413.69202L155.173 413.69202L155.173 407.816z" />                            </clipPath>
                                <clipPath  id="56">

                                    <path clip-rule="evenodd" d="M156.56 413.622L157.647 413.668C 160.759 413.668 163.447 412.705 165.839 411.018C 168.354 412.99802 171.392 413.69202 175.612 413.69202L175.612 413.69202L155.175 413.69202C 155.645 413.69202 156.10701 413.66602 156.56 413.622" />                                </clipPath>
                                    <clipPath  id="57">

                                        <path clip-rule="evenodd" d="M158.155 420.9L176.54 413.275L172.59299 403.759L154.208 411.385L158.155 420.90002L158.155 420.9z" />                                    </clipPath>
                                        <clipPath  id="58">

                                            <path clip-rule="evenodd" d="M158.155 420.9L176.54 413.274L172.59299 403.758L154.208 411.384L158.155 420.9z" />                                        </clipPath>
    <linearGradient transform="matrix(1 0 0 1 0 0)"  id="23629" x1="158.563" y1="416.502" x2="173.102" y2="410.471">
        <stop stop-color="#97D6EE" offset="0%"/>
        <stop stop-color="#55C1EA" offset="100%"/>
    </linearGradient>
                                <clipPath  id="59">

                                    <path clip-rule="evenodd" d="M175.613 413.692C 171.393 413.692 168.35501 412.999 165.84001 411.01797C 166.67502 410.42596 167.48001 409.74197 168.242 408.97998C 171.739 411.206 175.205 412.67798 178.62201 413.31998C 179.927 413.56598 181.22801 413.68997 182.51001 413.68997L182.51001 413.68997L175.613 413.68997L175.613 413.692z" />                                </clipPath>
                                    <clipPath  id="60">

                                        <path clip-rule="evenodd" d="M164.075 412.92L179.675 419.99002L184.289 409.81302L168.689 402.743L164.075 412.92z" />                                    </clipPath>
                                        <clipPath  id="61">

                                            <path clip-rule="evenodd" d="M164.075 412.92L179.675 419.992L184.28801 409.815L168.688 402.743L164.075 412.92z" />                                        </clipPath>
    <linearGradient transform="matrix(1 0 0 1 0 0)"  id="24865" x1="166.996" y1="409.307" x2="178.479" y2="414.512">
        <stop stop-color="#7ACCEC" offset="0%"/>
        <stop stop-color="#3FB7ED" offset="100%"/>
    </linearGradient>
                        <clipPath  id="62">

                            <path clip-rule="evenodd" d="M214.165 414.975L247.073 414.975L247.073 364.18802L214.165 364.18802L214.165 414.975z" />                        </clipPath>
                            <clipPath  id="63">

                                <path clip-rule="evenodd" d="M214.167 364.188L246.92001 364.188L246.92001 414.96L214.16702 414.96L214.16702 364.188L214.167 364.188z" />                            </clipPath>
                                <clipPath  id="64">

                                    <path clip-rule="evenodd" d="M225.7 377.66L232.173 398.296C 234.49301 405.724 238.606 411.27298 246.33101 413.698L246.33101 413.698L246.92401 414.96C 234.324 414.207 228.45102 407.8 225.48901 398.318C 220.31102 381.75998 217.17502 371.026 214.156 364.188C 218.013 367.87598 221.86801 372.40198 225.70001 377.65997" />                                </clipPath>
                                    <clipPath  id="65">

                                        <path clip-rule="evenodd" d="M247.073 364.203L214.303 364.203L214.303 414.975L247.073 414.975L247.073 364.203z" />                                    </clipPath>
                                        <clipPath  id="66">

                                            <path clip-rule="evenodd" d="M247.073 414.974L247.073 364.204L214.303 364.204L214.303 414.974L247.073 414.974z" />                                        </clipPath>
    <linearGradient transform="matrix(1 0 0 1 0 0)"  id="26568" x1="230.688" y1="411.744" x2="230.688" y2="350.007">
        <stop stop-color="#1DA7E7" offset="0%"/>
        <stop stop-color="#37ABE7" offset="100%"/>
    </linearGradient>
</defs>

<g transform="matrix(0.6666667 0 0 0.6666667 0 0)">
	<g transform="matrix(1.25 0 0 1.25 0 0)">
		<g transform="matrix(0.327726 0 0 0.327726 -39.858395 170.97774)">
			<g transform="matrix(1.25 0 -0 -1.25 0 49.00003)">
				<g clip-path="url(#1)" >
					<g clip-path="url(#2)" >
						<g clip-path="url(#3)" >
                            <path d="M195.484 352.88L166.76799 352.88L166.76799 404.092L195.484 404.092L195.484 352.88z" stroke="none" fill="url(#832)" />
						</g>
					</g>
				</g>
				<g clip-path="url(#4)" >
					<g clip-path="url(#5)" >
						<g clip-path="url(#6)" >
                            <path d="M199.257 353.196L169.117 353.196L169.117 405.713L199.257 405.713L199.257 353.196z" stroke="none" fill="url(#1880)" />
						</g>
					</g>
				</g>
			</g>
            <path d="M228.138 -468.115C 226.536 -468.115 224.908 -467.95898 223.278 -467.647C 219.01 -466.84302 214.674 -465.007 210.303 -462.224C 211.498 -461.044 212.633 -459.698 213.7 -458.224C 218.145 -461.924 222.56 -464.63998 226.963 -466.279C 228.56932 -466.879 230.22444 -467.33902 231.91 -467.654C 230.67645 -467.96417 229.40894 -468.11868 228.13701 -468.11398" stroke="none" fill="#14559A" fill-rule="nonzero" />
			<g transform="matrix(1.25 0 -0 -1.25 0 49.00003)">
				<g clip-path="url(#7)" >
					<g clip-path="url(#8)" >
						<g clip-path="url(#9)" >
							<g clip-path="url(#10)" >
								<g clip-path="url(#11)" >
                                    <path d="M185.566 413.666L214.18599 413.666L214.18599 360.46L185.566 360.46L185.566 413.66498L185.566 413.666z" stroke="none" fill="url(#3449)" />
								</g>
							</g>
						</g>
					</g>
				</g>
			</g>
			<g>
				<g transform="matrix(1.25 0 -0 -1.25 0 49.00003)" clip-path="url(#12)" >
					<g clip-path="url(#13)" >
                        <path d="M185.528 413.325C 184.574 413.56702 183.571 413.69202 182.51 413.69202L182.51 413.69202L189.192 413.66803C 187.96266 413.66763 186.73605 413.55283 185.528 413.32504" stroke="none" fill="#3092C4" fill-rule="nonzero" />
					</g>
				</g>
			</g>
            <path d="M262.02 -396.912C 261.19 -397.706 260.40198 -398.572 259.62598 -399.512C 256.05597 -396.982 252.49397 -395.06198 248.95598 -393.81598C 250.21298 -393.19998 251.53297 -392.74597 252.93198 -392.46097C 254.01598 -392.23697 255.13197 -392.12497 256.33197 -392.12497C 260.29898 -392.12497 263.43597 -392.59796 266.10797 -393.87497C 264.63797 -394.67096 263.28796 -395.70096 262.02798 -396.92197" stroke="none" fill="#1969BC" fill-rule="nonzero" />
			<g transform="matrix(1.25 0 -0 -1.25 0 49.00003)">
				<g clip-path="url(#14)" >
					<g clip-path="url(#15)" >
						<g clip-path="url(#16)" >
                            <path d="M209.982 358.734L181.642 358.734L181.642 413.26L209.982 413.26L209.982 358.734z" stroke="none" fill="url(#4926)" />
						</g>
					</g>
				</g>
				<g clip-path="url(#17)" >
					<g clip-path="url(#18)" >
						<g clip-path="url(#19)" >
                            <path d="M207.683 354.228L170.943 354.228L170.943 412.208L207.683 412.208L207.683 354.228z" stroke="none" fill="url(#5982)" />
						</g>
					</g>
				</g>
			</g>
			<g>
				<g transform="matrix(1.25 0 -0 -1.25 0 49.00003)" clip-path="url(#20)" >
					<g clip-path="url(#21)" >
                        <path d="M160.024 402.44C 158.356 398.675 156.657 393.723 154.597 387.258C 158.691 393.023 162.77 397.99298 166.824 402.016C 166.264 403.733 165.667 405.318 165.02101 406.729C 163.36101 405.459 161.69101 404.029 160.02402 402.42902" stroke="none" fill="#33BDF2" fill-rule="nonzero" />
					</g>
				</g>
			</g>
            <path d="M208.12 -460.77L206.276 -459.412C 207.084 -457.64798 207.831 -455.667 208.53 -453.512L208.53 -453.512L211.28 -456.119C 210.297 -457.805 209.256 -459.365 208.12 -460.759" stroke="none" fill="#2B74B1" fill-rule="nonzero" />
            <path d="M210.303 -462.225L208.12 -460.77002C 209.252 -459.37503 210.29599 -457.81503 211.28 -456.13L211.28 -456.13L213.7 -458.228C 212.62999 -459.69998 211.498 -461.048 210.303 -462.228" stroke="none" fill="#125A9E" fill-rule="nonzero" />
			<g transform="matrix(1.25 0 -0 -1.25 0 49.00003)">
				<g clip-path="url(#22)" >
					<g clip-path="url(#23)" >
						<g clip-path="url(#24)" >
							<g clip-path="url(#25)" >
								<g clip-path="url(#26)" >
                                    <path d="M221.457 415.068L271.287 415.068L271.287 352.936L221.45699 352.936L221.45699 415.068L221.457 415.068z" stroke="none" fill="url(#8838)" />
								</g>
							</g>
						</g>
					</g>
				</g>
			</g>
			<g>
				<g transform="matrix(1.25 0 -0 -1.25 0 49.00003)" clip-path="url(#27)" >
					<g clip-path="url(#28)" >
                        <path d="M151.77 412.466C 151.778 412.474 151.79001 412.479 151.794 412.479C 151.80368 412.4835 151.81372 412.48715 151.824 412.49L151.824 412.49L152.052 412.578C 152.07 412.582 152.08 412.588 152.092 412.592C 152.10976 412.5987 152.1271 412.60638 152.144 412.61502L152.144 412.61502L152.374 412.695L152.874 412.875C 152.9 412.875 152.924 412.887 152.94899 412.895L152.94899 412.895L153.16399 412.96C 153.19699 412.972 153.23198 412.978 153.262 412.99L153.262 412.99L153.478 413.05298L153.56099 413.07797L154.27798 413.26196L154.37398 413.28696L154.58197 413.32697L154.68497 413.35696L154.88496 413.39697C 154.90297 413.39697 154.91496 413.40198 154.93497 413.40497L154.93497 413.40497L155.36996 413.48196C 155.39897 413.48788 155.4284 413.49158 155.45796 413.49295L155.45796 413.49295L155.65596 413.52795L155.76996 413.53995L155.96295 413.56796C 155.99858 413.5695 156.03403 413.57385 156.06895 413.58096L156.06895 413.58096L156.53896 413.62296L155.15396 413.69296C 140.48996 413.69296 120.29096 386.48996 111.188965 351.25995L111.188965 351.25995L112.94296 351.26794C 115.85796 356.45993 118.47296 361.37393 120.86296 365.98593C 127.23796 390.93893 140.21796 407.95795 151.74696 412.46594" stroke="none" fill="#05A1E6" fill-rule="nonzero" />
					</g>
				</g>
			</g>
			<g>
                <path d="M200.03 -454.05C 202.114 -456.038 204.2 -457.82498 206.276 -459.40997L206.276 -459.40997L204.776 -462.28296C 203.1 -460.24896 201.57 -457.56595 200.02 -454.04895" stroke="none" fill="#0D82CA" fill-rule="nonzero" />
                <path d="M201.535 -466.325C 202.735 -465.321 203.80501 -463.94 204.785 -462.285L204.785 -462.285L205.73001 -463.345C 204.37001 -464.615 202.90001 -465.659 201.30002 -466.445L201.30002 -466.445L201.49702 -466.351C 201.50702 -466.33902 201.52002 -466.33102 201.53203 -466.32602" stroke="none" fill="#0D82CA" fill-rule="nonzero" />
			</g>
			<g transform="matrix(1.25 0 -0 -1.25 0 49.00003)" clip-path="url(#29)" >
				<g clip-path="url(#30)" >
					<g clip-path="url(#31)" >
                        <path d="M120.87 412.433L151.755 412.433L151.755 365.95L120.87 365.95L120.87 412.432L120.87 412.433z" stroke="none" fill="url(#10209)" />
					</g>
				</g>
			</g>
            <path d="M205.73 -463.345L204.78499 -462.285C 205.30998 -461.408 205.79799 -460.45 206.28499 -459.41202L206.28499 -459.41202L208.12898 -460.77002C 207.37299 -461.704 206.57399 -462.56802 205.72899 -463.34503" stroke="none" fill="#127BCA" fill-rule="nonzero" />
			<g transform="matrix(1.25 0 -0 -1.25 0 49.00003)">
				<g>
					<g clip-path="url(#32)" >
						<g clip-path="url(#33)" >
							<g clip-path="url(#34)" >
								<g clip-path="url(#35)" >
									<g clip-path="url(#36)" >
                                        <path d="M125.894 387.258L154.608 387.258L154.608 351.288L125.894 351.288L125.894 387.258z" stroke="none" fill="url(#12079)" />
									</g>
								</g>
							</g>
						</g>
					</g>
				</g>
				<g clip-path="url(#37)" >
					<g clip-path="url(#38)" >
						<g clip-path="url(#39)" >
                            <path d="M127.028 402.367L160.09601 402.367L160.09601 351.307L127.02801 351.307L127.02801 402.367L127.028 402.367z" stroke="none" fill="url(#13197)" />
						</g>
					</g>
				</g>
			</g>
            <path d="M151.108 -408.48C 148.108 -402.715 144.84601 -396.57202 141.20801 -390.083L141.20801 -390.083L147.585 -390.08502C 148.42801 -396.53104 149.625 -402.68002 151.10901 -408.48" stroke="none" fill="#05A1E6" fill-rule="nonzero" />
			<g transform="matrix(1.25 0 -0 -1.25 0 49.00003)">
				<g clip-path="url(#40)" >
					<g clip-path="url(#41)" >
						<g clip-path="url(#42)" >
                            <path d="M119.313 343.45L107.270004 411.75L162.314 421.455L174.357 353.15497L119.312996 343.44897L119.313 343.45z" stroke="none" fill="url(#16939)" />
						</g>
					</g>
				</g>
				<g clip-path="url(#43)" >
					<g clip-path="url(#44)" >
						<g clip-path="url(#45)" >
                            <path d="M225.748 413.707L246.378 413.707L246.378 377.675L225.748 377.675L225.748 413.707z" stroke="none" fill="url(#17914)" />
						</g>
					</g>
				</g>
				<g>
					<g clip-path="url(#46)" >
						<g clip-path="url(#47)" >
							<g clip-path="url(#48)" >
								<g clip-path="url(#49)" >
									<g clip-path="url(#50)" >
                                        <path d="M273.147 413.298L261.631 347.998L214.45601 356.31598L225.97202 421.61597L273.147 413.29797L273.147 413.298z" stroke="none" fill="url(#19567)" />
									</g>
								</g>
							</g>
						</g>
					</g>
				</g>
			</g>
            <path d="M271.2 -398.006C 274.93402 -402.566 277.97803 -410.31403 282.126 -423.08102C 277.338 -416.50104 272.526 -410.84903 267.69202 -406.23502C 267.686 -406.221 267.686 -406.209 267.67603 -406.19302C 268.72903 -403.04303 269.88403 -400.25504 271.2 -398.00702" stroke="none" fill="#079AE1" fill-rule="nonzero" />
            <path d="M271.2 -398.006C 269.93002 -396.453 268.58502 -395.276 267.08502 -394.40002L267.08502 -394.40002L266.09003 -393.86502C 267.71396 -392.98654 269.49084 -392.4265 271.325 -392.21503L271.325 -392.21503L271.338 -392.21503L272.19302 -392.13904L272.247 -392.13904L272.647 -392.11905L272.703 -392.11905L273.126 -392.11304L273.581 -392.11905L273.721 -392.12906L274.04102 -392.13907L274.199 -392.15906L274.499 -392.17905C 274.51498 -392.17905 274.524 -392.17905 274.534 -392.18906C 274.574 -392.18906 274.611 -392.19507 274.65 -392.19507L274.65 -392.19507L274.984 -392.23007C 274.99402 -392.23007 274.99902 -392.23407 275.014 -392.23407C 275.044 -392.24106 275.081 -392.24606 275.114 -392.25006L275.114 -392.25006L275.474 -392.30206C 275.51 -392.30206 275.541 -392.31207 275.58 -392.31708L275.58 -392.31708L275.983 -392.3831L276.005 -392.3831C 276.015 -392.39008 276.032 -392.39008 276.04102 -392.3931L276.04102 -392.3931L276.84402 -392.5631C 274.63004 -393.3631 272.77704 -395.28812 271.17902 -398.00912" stroke="none" fill="#1969BC" fill-rule="nonzero" />
			<g>
                <path d="M239.57 -392.114C 241.20041 -392.1169 242.82692 -392.2733 244.42801 -392.58102C 245.932 -392.85904 247.44402 -393.27603 248.95801 -393.80502C 250.22041 -393.18558 251.55647 -392.72925 252.934 -392.44702C 254.018 -392.22702 255.134 -392.113 256.334 -392.113L256.334 -392.113L239.57 -392.113L239.57 -392.114z" stroke="none" fill="#1E5CB3" fill-rule="nonzero" />
                <path d="M256.324 -392.114C 260.29102 -392.114 263.431 -392.58102 266.1 -393.864C 267.7234 -392.98413 269.50052 -392.424 271.335 -392.21402L271.335 -392.21402L271.348 -392.21402L272.203 -392.13803L272.257 -392.13803L272.65698 -392.11804L272.71298 -392.11804L273.136 -392.11203L256.31198 -392.11203L256.324 -392.114z" stroke="none" fill="#1E5CB3" fill-rule="nonzero" />
			</g>
            <path d="M273.148 -392.114L273.603 -392.12003L273.743 -392.13004L274.06302 -392.14005L274.22003 -392.16003L274.52002 -392.18002C 274.536 -392.18002 274.54202 -392.18002 274.55502 -392.18604C 274.59503 -392.18604 274.63202 -392.19604 274.67502 -392.19604L274.67502 -392.19604L275.005 -392.23105C 275.015 -392.23105 275.02002 -392.23505 275.035 -392.23505C 275.065 -392.24203 275.103 -392.24704 275.135 -392.25104L275.135 -392.25104L275.495 -392.30405C 275.53076 -392.3048 275.56635 -392.30984 275.60098 -392.31906L275.60098 -392.31906L276.003 -392.38507L276.02298 -392.38507C 276.038 -392.39206 276.05298 -392.39206 276.063 -392.39508L276.063 -392.39508L276.86697 -392.5651C 277.653 -392.27606 278.48453 -392.1304 279.32196 -392.1351L279.32196 -392.1351L273.13696 -392.1191L273.148 -392.114z" stroke="none" fill="#1D60B5" fill-rule="nonzero" />
            <path d="M267.686 -406.192C 267.686 -406.19897 267.68 -406.20798 267.68 -406.214L267.68 -406.214L262.38 -401.577L259.615 -399.501L262.009 -396.901C 263.269 -395.681 264.609 -394.651 266.089 -393.854L266.089 -393.854L267.08398 -394.389C 268.58398 -395.265 269.93 -396.443 271.19897 -397.995C 269.88498 -400.245 268.72897 -403.03 267.675 -406.181" stroke="none" fill="#175FAB" fill-rule="nonzero" />
			<g transform="matrix(1.25 0 -0 -1.25 0 49.00003)">
				<g clip-path="url(#51)" >
					<g clip-path="url(#52)" >
						<g clip-path="url(#53)" >
                            <path d="M261.187 353.24L216.93701 353.24L216.93701 415.03998L261.187 415.03998L261.187 353.24z" stroke="none" fill="url(#22003)" />
						</g>
					</g>
				</g>
				<g>
					<g clip-path="url(#54)" >
						<g clip-path="url(#55)" >
                            <path d="M156.56 413.622L156.644 413.612C 156.71376 413.60904 156.78325 413.60135 156.85199 413.589C 156.87698 413.589 156.89899 413.58398 156.91899 413.581L156.91899 413.581L157.30199 413.531C 157.32399 413.526 157.34499 413.526 157.36499 413.519L157.36499 413.519L157.687 413.466C 157.713 413.45782 157.73982 413.45245 157.767 413.45L157.767 413.45L158.509 413.28702L158.577 413.27103L158.877 413.187C 158.907 413.17902 158.93 413.174 158.957 413.161L158.957 413.161L159.312 413.061C 159.316 413.055 159.32199 413.055 159.336 413.051L159.336 413.051L159.636 412.945L159.756 412.905L159.976 412.805C 160.01599 412.79498 160.05899 412.779 160.102 412.762L160.102 412.762L160.39601 412.639L160.53902 412.577L160.71901 412.501C 160.76901 412.473 160.826 412.449 160.87502 412.426L160.87502 412.426L161.03302 412.346C 162.31102 411.71802 163.48802 410.884 164.57602 409.866C 164.96614 410.27658 165.38559 410.65823 165.83102 411.008C 163.45102 412.695 160.75102 413.658 157.63902 413.658C 157.27618 413.65906 156.91348 413.6437 156.55202 413.612" stroke="none" fill="#7DCBEC" fill-rule="nonzero" />
                            <path d="M164.585 409.876C 165.25201 409.254 165.891 408.56302 166.485 407.816L166.485 407.816L168.231 408.98C 167.46901 409.742 166.664 410.42603 165.82901 411.018C 165.395 410.678 164.977 410.298 164.574 409.876" stroke="none" fill="#5EC5ED" fill-rule="nonzero" />
							<g clip-path="url(#56)" >
								<g clip-path="url(#57)" >
									<g clip-path="url(#58)" >
                                        <path d="M158.155 420.9L176.54 413.275L172.59299 403.759L154.208 411.385L158.155 420.90002L158.155 420.9z" stroke="none" fill="url(#23629)" />
									</g>
								</g>
							</g>
							<g clip-path="url(#59)" >
								<g clip-path="url(#60)" >
									<g clip-path="url(#61)" >
                                        <path d="M164.075 412.92L179.675 419.99002L184.289 409.81302L168.689 402.743L164.075 412.92z" stroke="none" fill="url(#24865)" />
									</g>
								</g>
							</g>
						</g>
					</g>
				</g>
				<g>
					<g clip-path="url(#62)" >
						<g clip-path="url(#63)" >
							<g clip-path="url(#64)" >
								<g clip-path="url(#65)" >
									<g clip-path="url(#66)" >
                                        <path d="M247.073 364.203L214.303 364.203L214.303 414.975L247.073 414.975L247.073 364.203z" stroke="none" fill="url(#26568)" />
									</g>
								</g>
							</g>
						</g>
					</g>
				</g>
			</g>
            <path d="M305.738 -393.33L305.49402 -392.71298L305.47003 -392.71298C 305.43503 -392.84998 305.37003 -393.05298 305.24402 -393.317L305.24402 -393.317L303.70602 -396.817L302.93002 -396.817L302.93002 -391.8L303.49002 -391.8L303.49002 -395.15997L303.46503 -396.14297L303.47702 -396.14297C 303.531 -395.90298 303.58203 -395.72998 303.63004 -395.623L303.63004 -395.623L305.34503 -391.79797L305.63104 -391.79797L307.33905 -395.65198C 307.38605 -395.75198 307.43506 -395.912 307.49606 -396.15198L307.49606 -396.15198L307.50607 -396.15198L307.46008 -395.17798L307.46008 -391.80798L308.04507 -391.80798L308.04507 -396.82498L307.30508 -396.82498L305.73508 -393.33698L305.738 -393.33zM298.661 -396.284L300.10703 -396.284L300.10703 -391.8L300.70703 -391.8L300.70703 -396.284L302.14703 -396.284L302.14703 -396.818L298.66702 -396.818L298.66702 -396.284zM335.11502 -399.024C 334.05405 -399.0427 333.03482 -398.61102 332.31003 -397.836C 331.54202 -397.041 331.16003 -396.086 331.16003 -394.956C 331.16003 -393.856 331.54004 -392.901 332.31003 -392.096C 333.08002 -391.29102 334.01404 -390.889 335.11502 -390.889C 336.20184 -390.87115 337.24652 -391.30884 337.99603 -392.096C 338.79004 -392.9 339.19604 -393.853 339.19604 -394.956C 339.19604 -396.059 338.80106 -397.016 337.99603 -397.82C 337.24744 -398.60812 336.20187 -399.04507 335.11502 -399.02402zM434.02902 -437.86398L448.924 -437.86398L448.924 -391.71997L454.97202 -391.71997L454.97202 -437.86398L469.83902 -437.86398L469.83902 -443.33398L434.03903 -443.33398L434.03903 -437.86398zM407.02902 -415.224L425.67102 -415.224L425.67102 -420.694L407.03 -420.694L407.03 -437.864L427.15 -437.864L427.15 -443.334L401 -443.334L401 -391.72003L428.355 -391.72003L428.355 -397.19003L407.05502 -397.19003L407.05502 -415.22504zM383.54303 -406.98L383.90604 -399.393L383.76602 -399.393C 383.40604 -400.09302 382.70602 -401.23502 381.66602 -402.84302L381.66602 -402.84302L355.82602 -443.34302L348 -443.34302L348 -391.729L354.05 -391.729L354.05 -429L353.762 -436.087L353.982 -436.087C 354.43698 -434.91202 354.975 -433.835 355.597 -432.84702L355.597 -432.84702L382.23398 -391.70703L389.57397 -391.70703L389.57397 -443.32104L383.57397 -443.32104L383.57397 -406.96805zM455.01804 -453.655C 455.01804 -450.891 456.24304 -449.508 458.69803 -449.508C 459.57303 -449.508 460.278 -449.658 460.81204 -449.96298L460.81204 -449.96298L460.81204 -451.883C 460.40005 -451.58 459.91605 -451.428 459.35706 -451.428C 458.60706 -451.428 458.07407 -451.62802 457.74905 -452.03C 457.42706 -452.43 457.27106 -453.096 457.27106 -454.03L457.27106 -454.03L457.27106 -461.96L460.81107 -461.96L460.81107 -463.867L457.27106 -463.867L457.27106 -468.027L455.01706 -467.297L455.01706 -463.867L452.60306 -463.867L452.60306 -461.96L455.01706 -461.96L455.01706 -453.64398zM445.81802 -449.82L448.06802 -449.82L448.06802 -461.97L451.36304 -461.97L451.36304 -463.877L448.06802 -463.877L448.06802 -466.043C 448.06802 -468.029 448.85004 -469.023 450.42603 -469.023C 450.94797 -469.03094 451.46304 -468.90347 451.92102 -468.653L451.92102 -468.653L451.92102 -470.68503C 451.527 -470.84503 450.98502 -470.92902 450.29102 -470.92902C 449.091 -470.92902 448.091 -470.552 447.255 -469.789C 446.29 -468.914 445.818 -467.689 445.818 -466.155L445.818 -466.155L445.818 -463.875L443.418 -463.875L443.418 -461.968L445.818 -461.968L445.818 -449.818zM430.476 -456.77002C 430.476 -458.56403 430.91602 -459.946 431.80103 -460.92603C 432.64502 -461.84103 433.76703 -462.299 435.16602 -462.299C 436.582 -462.299 437.68802 -461.84702 438.47403 -460.941C 439.28802 -459.997 439.69403 -458.625 439.69403 -456.823C 439.69403 -455.103 439.31403 -453.779 438.55402 -452.841C 437.778 -451.881 436.64902 -451.401 435.16702 -451.401C 433.739 -451.401 432.601 -451.875 431.743 -452.823C 430.898 -453.767 430.47702 -455.087 430.47702 -456.769zM440.10602 -451.514C 441.36603 -452.864 442.006 -454.664 442.006 -456.914C 442.006 -459.191 441.411 -460.984 440.239 -462.284C 439.05902 -463.578 437.427 -464.23 435.33902 -464.23C 433.20502 -464.23 431.501 -463.605 430.23303 -462.36502C 428.86304 -461.02502 428.17303 -459.139 428.17303 -456.695C 428.17303 -454.551 428.77902 -452.827 429.98602 -451.522C 431.21902 -450.168 432.88602 -449.492 435.01102 -449.492C 437.15103 -449.492 438.854 -450.17 440.11502 -451.522zM424.65103 -450.71802C 425.4917 -451.4286 425.9668 -452.48056 425.94403 -453.58102C 425.94403 -454.627 425.59802 -455.48703 424.91003 -456.161C 424.38403 -456.696 423.51804 -457.217 422.31604 -457.717C 421.24905 -458.172 420.53802 -458.564 420.21603 -458.88702C 419.84204 -459.23203 419.65204 -459.717 419.65204 -460.33704C 419.641 -460.8896 419.8916 -461.41492 420.32803 -461.75403C 420.77405 -462.11703 421.37305 -462.29904 422.12802 -462.29904C 423.33203 -462.29904 424.39203 -461.96704 425.32803 -461.29703L425.32803 -461.29703L425.32803 -463.56403C 424.44205 -464.00403 423.44205 -464.22202 422.32303 -464.22202C 420.86603 -464.22202 419.67804 -463.837 418.75302 -463.058C 417.828 -462.27902 417.36703 -461.31302 417.36703 -460.15802C 417.36703 -459.11502 417.66702 -458.25803 418.26105 -457.618C 418.75406 -457.06802 419.59305 -456.54102 420.76105 -456.02402C 421.90305 -455.522 422.67404 -455.09402 423.06705 -454.72403C 423.46005 -454.35403 423.66003 -453.92404 423.66003 -453.36603C 423.66003 -452.058 422.76804 -451.40103 420.98505 -451.40103C 419.65005 -451.40103 418.43506 -451.85104 417.33005 -452.74704L417.33005 -452.74704L417.33005 -450.32703C 418.33005 -449.76102 419.48605 -449.48102 420.83005 -449.48102C 422.45206 -449.48102 423.74405 -449.881 424.68506 -450.716zM404.58902 -460.91803C 405.42902 -461.83304 406.549 -462.29102 407.949 -462.29102C 409.36902 -462.29102 410.469 -461.83902 411.249 -460.933C 412.04898 -459.989 412.469 -458.617 412.469 -456.815C 412.469 -455.095 412.089 -453.771 411.32898 -452.833C 410.55298 -451.87302 409.429 -451.393 407.942 -451.393C 406.512 -451.393 405.37198 -451.867 404.526 -452.815C 403.673 -453.759 403.251 -455.079 403.251 -456.76102C 403.251 -458.55502 403.695 -459.937 404.581 -460.91702zM407.78302 -449.47403C 409.92303 -449.47403 411.62503 -450.15204 412.88303 -451.50403C 414.14102 -452.85602 414.78302 -454.65402 414.78302 -456.90402C 414.78302 -459.18103 414.183 -460.97403 413.023 -462.27402C 411.84302 -463.56802 410.20602 -464.22003 408.109 -464.22003C 405.979 -464.22003 404.27902 -463.59503 403.009 -462.35504C 401.634 -461.01505 400.949 -459.12903 400.949 -456.68503C 400.949 -454.54102 401.55402 -452.81702 402.749 -451.51202C 403.982 -450.15802 405.649 -449.48203 407.772 -449.48203zM396.44 -463.37C 395.756 -462.81 395.24802 -462.023 394.91602 -460.994L394.91602 -460.994L394.86002 -460.994L394.86002 -463.89398L392.61203 -463.89398L392.61203 -449.83398L394.86002 -449.83398L394.86002 -457.004C 394.86002 -458.634 395.21002 -459.909 395.92 -460.83398C 396.543 -461.65598 397.32 -462.06598 398.224 -462.06598C 398.976 -462.06598 399.546 -461.91898 399.944 -461.61597L399.944 -461.61597L399.944 -463.94998C 399.639 -464.076 399.194 -464.15 398.596 -464.15C 397.80002 -464.15 397.08002 -463.89398 396.44202 -463.382zM385.354 -449.497C 386.84 -449.497 388.126 -449.825 389.204 -450.497L389.204 -450.497L389.204 -452.63702C 388.12402 -451.83102 386.976 -451.437 385.74402 -451.437C 384.28903 -451.437 383.144 -451.91202 382.268 -452.864C 381.392 -453.816 380.96802 -455.112 380.96802 -456.74902C 380.96802 -458.45102 381.446 -459.816 382.384 -460.83603C 383.28702 -461.834 384.451 -462.334 385.884 -462.334C 387.084 -462.334 388.186 -461.97 389.234 -461.234L389.234 -461.234L389.234 -463.534C 388.289 -464.00598 387.204 -464.248 385.982 -464.248C 383.749 -464.248 381.982 -463.54797 380.652 -462.12097C 379.32602 -460.70297 378.66602 -458.84097 378.66602 -456.53796C 378.66602 -454.48596 379.272 -452.80795 380.466 -451.51297C 381.706 -450.17697 383.326 -449.50897 385.34302 -449.50897zM372.931 -449.83502L375.176 -449.83502L375.176 -463.89502L372.931 -463.89502L372.931 -449.83502zM374.081 -467.46103C 374.49298 -467.46103 374.845 -467.60403 375.13098 -467.88904C 375.41696 -468.17404 375.564 -468.51904 375.564 -468.93204C 375.57022 -469.3223 375.41327 -469.69748 375.13098 -469.96704C 374.8528 -470.24338 374.47397 -470.39432 374.08197 -470.38504C 373.68198 -470.38504 373.33197 -470.24805 373.04398 -469.96704C 372.76245 -469.6973 372.60715 -469.32178 372.61597 -468.93204C 372.61597 -468.49902 372.75998 -468.14905 373.04398 -467.87402C 373.32797 -467.599 373.67996 -467.46103 374.08197 -467.46103zM350.21698 -463.028L350.11 -466.868L350.15997 -466.868C 350.36 -465.944 350.55997 -465.268 350.74597 -464.84802L350.74597 -464.84802L357.47397 -449.83203L358.59998 -449.83203L365.31396 -464.95804C 365.48798 -465.35303 365.68695 -465.98804 365.90198 -466.85803L365.90198 -466.85803L365.95596 -466.85803L365.76398 -463.04303L365.76398 -449.82303L368.06396 -449.82303L368.06396 -469.50803L365.16397 -469.50803L358.99698 -455.838C 358.757 -455.308 358.447 -454.502 358.05298 -453.42502L358.05298 -453.42502L357.95697 -453.42502C 357.81497 -453.96103 357.51996 -454.747 357.06296 -455.781L357.06296 -455.781L351.02295 -469.509L347.97595 -469.509L347.97595 -449.824L350.20197 -449.824L350.20197 -463.018zM463.80298 -465.454C 464.43298 -466.088 465.223 -466.40402 466.17297 -466.40402C 467.04935 -466.42188 467.89508 -466.0817 468.51498 -465.46204C 469.15198 -464.83203 469.472 -464.04202 469.472 -463.10205C 469.472 -462.16208 469.15198 -461.36404 468.508 -460.73706C 467.866 -460.09705 467.08398 -459.78107 466.172 -459.78107C 465.25198 -459.78107 464.469 -460.09308 463.832 -460.72507C 463.187 -461.35706 462.86002 -462.15506 462.86002 -463.10208C 462.86002 -464.03207 463.174 -464.81808 463.80002 -465.45508zM466.15598 -459.401C 467.21997 -459.401 468.11096 -459.761 468.83597 -460.473C 469.56097 -461.185 469.93597 -462.068 469.93597 -463.123C 469.93597 -464.19498 469.57196 -465.08298 468.83997 -465.783C 468.12796 -466.46698 467.24796 -466.813 466.19595 -466.813C 465.12595 -466.813 464.23096 -466.453 463.51096 -465.733C 462.80188 -465.0379 462.41144 -464.08078 462.43195 -463.088C 462.43195 -462.02103 462.78195 -461.14102 463.49194 -460.441C 464.19894 -459.74802 465.09195 -459.398 466.16495 -459.398zM465.37097 -464.961L465.96396 -464.961C 466.36395 -464.961 466.66797 -464.891 466.83997 -464.761C 466.99396 -464.63098 467.06998 -464.439 467.06998 -464.16498C 467.06998 -463.61996 466.744 -463.348 466.085 -463.348L466.085 -463.348L465.371 -463.348L465.371 -464.97098zM465.37097 -462.769L465.80896 -462.769C 466.11697 -462.769 466.40897 -462.48502 466.65897 -461.90903L466.65897 -461.90903L467.17896 -460.769L467.97894 -460.769L467.35394 -462.03702C 467.09393 -462.561 466.82895 -462.854 466.55396 -462.91702L466.55396 -462.91702L466.55396 -462.937C 466.93396 -463.017 467.23395 -463.173 467.45395 -463.405C 467.67395 -463.637 467.77396 -463.91 467.77396 -464.239C 467.78482 -464.5822 467.64178 -464.9123 467.38394 -465.139C 467.07593 -465.409 466.62894 -465.539 466.03094 -465.539L466.03094 -465.539L464.69095 -465.539L464.69095 -460.774L465.36096 -460.774L465.36096 -462.774z" stroke="none" fill="#231F20" fill-rule="nonzero" />
		</g>
	</g>
</g>
</svg>