<?xml version="1.0" standalone="no"?>
<!DOCTYPE svg PUBLIC "-//W3C//DTD SVG 1.0//EN" "http://www.w3.org/TR/2001/REC-SVG-20010904/DTD/svg10.dtd">
<svg xmlns="http://www.w3.org/2000/svg" xmlns:xlink="http://www.w3.org/1999/xlink" id="body_1" width="100" height="75">

<g transform="matrix(0.6666667 0 0 0.6637168 0 0)">
	<g transform="matrix(0.8828125 0 0 0.8828125 18.499998 -0)">
		<g>
            <path d="M40.53 77.82L40.53 50.74L42 50.74L42 55C 42.17362 54.811287 42.334 54.610813 42.48 54.4C 43.706272 51.85449 46.294685 50.248425 49.12 50.280003C 52.469997 50.180004 55.19 51.420002 56.79 54.4C 58.85569 58.156246 58.974937 62.68015 57.11 66.54C 55.62 69.88 51.940002 71.54 48 70.93C 45.508743 70.717804 43.294964 69.25701 42.12 67.05L42.12 67.05L42.12 77.82L40.53 77.82zM42 60.32C 42.13 61.64 42.18 62.579998 42.33 63.5C 42.910004 67.12 45.050003 69.27 48.410004 69.66C 51.663326 70.19477 54.84129 68.35666 56 65.27C 57.306156 62.155468 57.211464 58.62992 55.74 55.589996C 54.507767 52.833725 51.599335 51.22654 48.61 51.649998C 45.809708 51.852886 43.445457 53.80771 42.72 56.519997C 42.406803 57.771698 42.1664 59.040478 42 60.32z" stroke="none" fill="#000000" fill-rule="nonzero" />
            <path d="M88.41 64C 87.9493 67.94356 84.63987 70.936584 80.67 71C 74.509995 71.31 71.619995 67.22 71.159996 62.5C 70.84071 59.93679 71.256905 57.335632 72.36 55C 73.93635 51.712463 77.45943 49.823513 81.07 50.33C 84.500534 50.620758 87.36031 53.073723 88.17 56.420002C 88.48299 57.906116 88.71333 59.408394 88.86 60.920002L88.86 60.920002L72.67 60.920002C 72.369995 65.200005 74.67 68.64 77.93 69.47C 81.99 70.47 85.46 68.71 86.72 64.85C 87 63.86 87.51 63.72 88.41 64zM72.67 59.55L87.14 59.55C 87.05 54.989998 84.21 51.69 80.36 51.64C 76 51.57 72.86 54.75 72.67 59.55z" stroke="none" fill="#000000" fill-rule="nonzero" />
            <path d="M91.39 64.1L92.81 64.1C 92.91693 66.23025 94.20626 68.12178 96.15 69C 98.57523 70.09139 101.3657 70.01777 103.73 68.8C 105.032745 68.21271 105.83112 66.87543 105.73 65.450005C 105.80516 64.07091 104.95599 62.809402 103.65 62.360004C 102.090004 61.780003 100.43 61.460003 98.840004 60.950005C 97.18565 60.47889 95.56797 59.8873 94 59.18C 91.44 57.93 91.28 53.06 94.18 51.52C 97.19718 49.817364 100.87192 49.760887 103.94 51.37C 105.81297 52.40512 106.84864 54.492397 106.54 56.61L106.54 56.61L105.32 56.61C 105.32 56.55 105.21 56.5 105.21 56.440002C 105.06 52.550003 101.799995 51.350002 98.3 51.690002C 97.25518 51.818886 96.24036 52.126717 95.3 52.600002C 94.1422 53.129486 93.44468 54.332096 93.560005 55.600002C 93.56357 56.86826 94.36427 57.997253 95.560005 58.420002C 97.100006 58.980003 98.71001 59.34 100.29001 59.780003C 101.560005 60.13 102.880005 60.360004 104.11001 60.780003C 105.887314 61.362614 107.12059 62.98178 107.21001 64.850006C 107.5144 66.90067 106.47064 68.91565 104.62001 69.850006C 101.280014 71.740005 95.780014 71.240005 93.33001 68.850006C 92.07585 67.588684 91.37744 65.87867 91.39 64.1z" stroke="none" fill="#000000" fill-rule="nonzero" />
            <path d="M125.21 56.61L123.88 56.61C 123.88 56.43 123.81 56.27 123.79 56.12C 123.745544 54.065384 122.26925 52.32219 120.25 51.94C 118.40131 51.40958 116.42921 51.504494 114.64 52.21C 113.18756 52.62646 112.18237 53.949078 112.17 55.46C 112.11874 56.949406 113.121475 58.26967 114.57 58.62C 116.57 59.239998 118.62 59.62 120.65 60.18C 121.30783 60.33789 121.95566 60.534912 122.590004 60.77C 124.528656 61.463608 125.84389 63.274704 125.90358 65.332825C 125.963264 67.390945 124.755196 69.27522 122.86 70.08C 120.00647 71.375755 116.73888 71.40843 113.86 70.17C 111.46209 69.13578 109.96181 66.71777 110.1 64.11L110.1 64.11L110.659996 64.11L111.399994 64.11C 111.88824 66.46558 113.50716 68.42864 115.726685 69.35645C 117.94622 70.284256 120.48058 70.05734 122.49999 68.75C 123.73734 68.10716 124.48718 66.80276 124.41999 65.41C 124.481895 64.03008 123.620445 62.776695 122.30999 62.340004C 120.74999 61.760002 119.08999 61.450005 117.49999 60.940002C 115.836174 60.476162 114.20848 59.891266 112.62999 59.190002C 110.12999 57.960003 109.92999 53.13 112.77999 51.590004C 115.83797 49.81409 119.60338 49.77234 122.69999 51.480003C 124.478874 52.54193 125.46324 54.553795 125.21 56.61z" stroke="none" fill="#000000" fill-rule="nonzero" />
            <path d="M38.1 70.51C 37.016434 70.9203 35.79713 70.45662 35.26 69.43C 33.629997 66.99 31.829998 64.66 30.099998 62.28L30.099998 62.28L29.349998 61.28C 27.289999 64.04 25.23 66.69 23.349998 69.44C 22.84334 70.42062 21.688475 70.874016 20.649998 70.5L20.649998 70.5L28.379997 60.13L21.189997 50.760002C 22.256931 50.374756 23.44769 50.792564 24.039997 51.760002C 25.709997 54.2 27.559998 56.530003 29.399998 59C 31.249998 56.55 33.079998 54.21 34.789997 51.79C 35.29984 50.824543 36.45234 50.394505 37.469997 50.79L37.469997 50.79L34.679996 54.49C 33.429996 56.140003 32.199997 57.800003 30.899996 59.410004C 30.688133 59.599705 30.567059 59.87063 30.567059 60.155006C 30.567059 60.439384 30.688133 60.710308 30.899996 60.900005C 33.29 64.07 35.66 67.25 38.1 70.51z" stroke="none" fill="#000000" fill-rule="nonzero" />
            <path d="M70.92 50.66L70.92 52.06C 68.874695 51.92585 66.86818 52.663727 65.39707 54.091007C 63.925964 55.518284 63.127754 57.501575 63.199997 59.550003C 63.199997 62.84334 63.199997 66.13667 63.199997 69.43C 63.199997 69.78 63.199997 70.13 63.199997 70.55L63.199997 70.55L61.77 70.55L61.77 50.74L63.170002 50.74L63.170002 54.8C 64.9 51.84 67.57 50.74 70.92 50.66z" stroke="none" fill="#000000" fill-rule="nonzero" />
            <path d="M2.13 60C 2.3400002 59 2.47 57.91 2.7600002 56.89C 4.4900002 50.739998 11.54 48.18 16.39 51.989998C 19.23 54.219997 19.939999 57.379997 19.8 60.94L19.8 60.94L3.7999992 60.94C 3.54 67.3 8.13 71.14 14 69.18C 15.934401 68.48806 17.389553 66.86746 17.869999 64.87C 18.179998 63.870003 18.679998 63.700005 19.63 63.99C 19.312954 66.45652 17.883148 68.64176 15.749999 69.92C 12.181495 71.871414 7.762748 71.30646 4.799999 68.52C 3.3711557 66.913445 2.507204 64.88351 2.3399992 62.739998C 2.3399992 62.399998 2.209999 62.059998 2.1399992 61.739998C 2.1333332 61.146667 2.13 60.566666 2.13 60zM3.8200002 59.57L18.29 59.57C 18.2 54.96 15.290001 51.69 11.410001 51.66C 7.09 51.6 4 54.8 3.81 59.55z" stroke="none" fill="#000000" fill-rule="nonzero" />
		</g>
	</g>
</g>
</svg>