<?xml version="1.0" standalone="no"?>
<!DOCTYPE svg PUBLIC "-//W3C//DTD SVG 1.0//EN" "http://www.w3.org/TR/2001/REC-SVG-20010904/DTD/svg10.dtd">
<svg xmlns="http://www.w3.org/2000/svg" xmlns:xlink="http://www.w3.org/1999/xlink" id="body_1" width="150" height="75">

<g transform="matrix(1.25 0 0 1.25 0 0)">
	<g transform="matrix(0.090203 0 0 0.090203 11.921255 15.418666)">
        <path d="M0 282.998L2.123 280.025L102.527 89.512L102.739 87.495L58.48 4.358C 54.77 -2.606 44.33 -0.846 43.114 6.95L43.114 6.95L0 282.998z" stroke="none" fill="#FFC24A" fill-rule="nonzero" />
		<g>
		</g>
        <path d="M135.005 150.38L167.96 116.630005L134.996 53.700005C 131.866 47.743004 123.129005 47.726006 120.033005 53.700005L120.033005 53.700005L102.42 87.3L102.42 90.16L135.005 150.38z" stroke="none" fill="#F4BD62" fill-rule="nonzero" />
		<g>
		</g>
        <path d="M102.513 87.105L0 282.998L0.962 282.03L4.458 280.61L132.936 152.60999L134.56201 148.18L102.513 87.105z" stroke="none" fill="#F6820C" fill-rule="nonzero" />
        <path d="M139.12 347.55L255.39499 282.702L222.2 78.2C 221.16 71.801994 213.312 69.271996 208.733 73.86L208.733 73.86L0 282.998L115.608 347.546C 122.91463 351.62448 131.81265 351.62637 139.121 347.551" stroke="none" fill="#FDE068" fill-rule="nonzero" />
        <path d="M254.354 282.16L221.402 79.218C 220.372 72.868004 213.842 70.241005 209.29799 74.79401L209.29799 74.79401L1.3 282.6L115.638 346.5C 122.888 350.548 131.718 350.55 138.972 346.506L138.972 346.506L254.354 282.16z" stroke="none" fill="#FCCA3F" fill-rule="nonzero" />
        <path d="M139.12 345.64C 131.81999 349.716 122.912994 349.71402 115.606995 345.634L115.606995 345.634L0.93 282.015L0 282.99802L115.608 347.54602C 122.914 351.626 131.812 351.626 139.121 347.55103L139.121 347.55103L255.396 282.70303L255.111 280.95102L139.12 345.64z" stroke="none" fill="#EEAB37" fill-rule="nonzero" />
	</g>
    <path d="M42.9 38.237L41.115 38.237L41.115 24.345L49.215004 24.345L49.215004 26.052L42.9 26.052L42.9 30.612L48.605003 30.612L48.605003 32.281998L42.9 32.281998L42.9 38.237zM52.353 26.342999C 52.107002 26.588999 51.81 26.713 51.461002 26.713C 51.125206 26.718803 50.802105 26.58478 50.569004 26.342999C 50.32823 26.109211 50.1944 25.786566 50.199005 25.450998C 50.1932 25.1152 50.32722 24.792097 50.569004 24.558998C 50.80279 24.318228 51.125435 24.184395 51.461002 24.188997C 51.7968 24.183193 52.1199 24.317217 52.353 24.558998C 52.593773 24.792786 52.727604 25.11543 52.723 25.450998C 52.728806 25.786797 52.594784 26.1099 52.353 26.342999zM52.353 38.237L50.568 38.237L50.568 28.73L52.353 28.73zM56.206 38.237L54.42 38.237L54.42 28.73L56.127 28.73L56.127 30.282L56.204 30.282C 56.384 29.765 56.757 29.338 57.32 29.001999C 57.883 28.665998 58.42 28.497 58.96 28.497C 59.5 28.497 59.937 28.574999 60.3 28.73L60.3 28.73L59.62 30.4C 59.386997 30.3 59.07 30.264 58.67 30.264C 58.023 30.264 57.449997 30.519 56.953 31.03C 56.456 31.541002 56.205997 32.21 56.205997 33.038002L56.205997 33.038002L56.205997 38.238003zM64.994 38.537C 63.558002 38.537 62.391003 38.059 61.492004 37.100998C 60.593006 36.142998 60.142006 34.934998 60.142006 33.473C 60.142006 32.089 60.578007 30.899 61.442005 29.903C 62.306004 28.907 63.442005 28.409 64.789 28.409C 66.189 28.409 67.327 28.869 68.175 29.787C 69.023 30.705002 69.445 31.934 69.445 33.474L69.445 33.474L69.425 33.804L61.925003 33.804C 61.977 34.761 62.297005 35.518 62.885002 36.074C 63.43601 36.61531 64.17962 36.915344 64.952 36.908C 66.232 36.908 67.09901 36.365 67.552 35.278L67.552 35.278L69.152 35.938C 68.852 36.675 68.33 37.293 67.619 37.791C 66.908005 38.289 66.034004 38.538002 64.999 38.538002zM67.554 32.336998C 67.514 31.793999 67.266 31.276999 66.807 30.784998C 66.348 30.292997 65.665 30.047998 64.76 30.047998C 64.1 30.047998 63.528004 30.255 63.043003 30.668C 62.558002 31.081 62.225002 31.637999 62.043003 32.337997L62.043003 32.337997L67.543 32.337997zM75.917 38.537C 75.192 38.537 74.542 38.382 73.967 38.071C 73.392006 37.76 72.961006 37.372997 72.667 36.906998L72.667 36.906998L72.6 36.906998L72.6 38.226997L70.893 38.226997L70.893 24.345L72.678 24.345L72.678 28.73L72.6 30.05L72.678 30.05C 72.963005 29.584 73.393 29.196 73.978004 28.886C 74.56301 28.576 75.204 28.42 75.928 28.42C 77.158005 28.42 78.228004 28.905 79.11 29.875C 79.992 30.845 80.45 32.048 80.45 33.475C 80.45 34.901997 80.004 36.114998 79.11 37.074997C 78.216 38.034996 77.157 38.53 75.928 38.53zM75.617 36.906998C 76.445 36.906998 77.157 36.593 77.751 35.967C 78.345 35.341 78.643 34.509 78.643 33.474C 78.643 32.439 78.345 31.608 77.751 30.980999C 77.157 30.353998 76.444 30.040998 75.617 30.040998C 74.8012 30.025017 74.018745 30.364422 73.473 30.970999C 72.885 31.600998 72.59 32.426 72.59 33.474C 72.59 34.522 72.883995 35.356 73.473 35.976997C 74.062004 36.597996 74.776 36.908997 75.617 36.908997zM85.13 38.537C 84.13 38.537 83.277 38.237 82.598 37.663998C 81.919 37.090996 81.578 36.311996 81.578 35.364C 81.578 34.329 81.978004 33.517998 82.781006 32.928997C 83.58401 32.339996 84.573006 32.045998 85.75101 32.045998C 86.799 32.045998 87.659004 32.239998 88.33101 32.628L88.33101 32.628L88.33101 32.356C 88.33101 31.655998 88.09101 31.098 87.61301 30.678C 87.135 30.258 86.546005 30.048 85.84701 30.048C 85.32901 30.048 84.86001 30.171 84.44001 30.418001C 84.04037 30.63961 83.733986 30.997831 83.57701 31.427002L83.57701 31.427002L81.947014 30.729002C 82.167015 30.159002 82.60001 29.633001 83.24702 29.149002C 83.89402 28.665003 84.74702 28.421001 85.807014 28.421001C 87.02302 28.421001 88.03201 28.777002 88.834015 29.488C 89.63602 30.199 90.03702 31.202002 90.03702 32.495003L90.03702 32.495003L90.03702 38.238003L88.34 38.238003L88.34 36.918003L88.26199 36.918003C 87.549995 38.004 86.508995 38.548004 85.13799 38.548004zM85.43 36.906998C 86.167 36.906998 86.837 36.631996 87.438 36.081997C 88.03901 35.531998 88.340004 34.881996 88.340004 34.131996C 87.836006 33.717995 87.08 33.511997 86.07001 33.511997C 85.20301 33.511997 84.55001 33.699997 84.11001 34.074997C 83.670006 34.449997 83.450005 34.889996 83.450005 35.394997C 83.450005 35.860996 83.65 36.228996 84.052 36.500996C 84.454 36.772995 84.912 36.908997 85.43 36.908997zM95.23 38.537C 94.170006 38.537 93.29301 38.277 92.600006 37.760998C 91.92485 37.265392 91.39816 36.594505 91.077 35.821L91.077 35.821L92.677 35.161C 93.181 36.361 94.042 36.946 95.257 36.946C 95.813 36.946 96.269005 36.822998 96.625 36.576C 96.980995 36.329002 97.159 36.006 97.159 35.606C 97.159 34.986 96.726 34.565998 95.85899 34.346L95.85899 34.346L93.938995 33.88C 93.33099 33.725002 92.755 33.43 92.212 32.997C 91.669 32.564003 91.4 32 91.4 31.252C 91.4 30.412 91.772 29.729 92.516 29.205002C 93.259995 28.681004 94.143 28.419003 95.166 28.419003C 96.006 28.419003 96.766 28.619003 97.416 28.991003C 98.066 29.363003 98.548004 29.919003 98.833 30.631002L98.833 30.631002L97.281 31.271002C 96.931 30.431002 96.207 30.011002 95.108 30.011002C 94.578 30.011002 94.131004 30.111002 93.768005 30.341002C 93.40501 30.571001 93.225006 30.858002 93.225006 31.233002C 93.225006 31.776001 93.645004 32.145 94.48501 32.339L94.48501 32.339L96.367004 32.785C 97.259 32.992 97.91901 33.348 98.34701 33.852C 98.77501 34.356003 98.98701 34.926003 98.98701 35.559002C 98.98701 36.413002 98.63701 37.124 97.93901 37.693C 97.24101 38.262 96.34101 38.547 95.24201 38.547zM104.737 38.537C 103.301 38.537 102.132996 38.059 101.235 37.100998C 100.337006 36.142998 99.885 34.934998 99.885 33.473C 99.885 32.089 100.321 30.899 101.185005 29.903C 102.04901 28.907 103.185005 28.409 104.532005 28.409C 105.93201 28.409 107.07001 28.869 107.91801 29.787C 108.76601 30.705002 109.188 31.934 109.188 33.474L109.188 33.474L109.188 33.804L101.688 33.804C 101.73801 34.761 102.060005 35.518 102.648 36.074C 103.19876 36.615067 103.94196 36.91508 104.714005 36.908C 105.994 36.908 106.86101 36.365 107.314 35.278L107.314 35.278L108.914 35.938C 108.614 36.675 108.092 37.293 107.381004 37.791C 106.670006 38.289 105.796005 38.538002 104.761 38.538002zM107.297 32.336998C 107.256996 31.793999 107.008995 31.276999 106.549995 30.784998C 106.090996 30.292997 105.408 30.047998 104.503 30.047998C 103.873795 30.036922 103.26255 30.257996 102.785995 30.668999C 102.300995 31.082998 101.967995 31.638998 101.785995 32.338997L101.785995 32.338997L107.285995 32.338997z" stroke="none" fill="#63666A" fill-rule="nonzero" />
</g>
</svg>