<?xml version="1.0" standalone="no"?>
<!DOCTYPE svg PUBLIC "-//W3C//DTD SVG 1.0//EN" "http://www.w3.org/TR/2001/REC-SVG-20010904/DTD/svg10.dtd">
<svg xmlns="http://www.w3.org/2000/svg" xmlns:xlink="http://www.w3.org/1999/xlink" id="body_1" width="100" height="75">

<g transform="matrix(0.6666667 0 0 0.6637168 0 0)">
	<g transform="matrix(0.8828125 0 0 0.8828125 18.499998 -0)">
        <path d="M76.397 55.676C 73.66 55.676 71.622 57.02 71.622 60.254997C 71.622 62.691998 72.965004 64.383995 76.25 64.383995C 79.034 64.383995 80.926 62.742996 80.926 60.153996C 80.926 57.219994 79.233 55.675995 76.397 55.675995L76.397 55.675995L76.397 55.676zM70.926 78.516C 70.278 79.311 69.632 80.156 69.632 81.153C 69.632 83.142 72.16801 83.74 75.653 83.74C 78.538 83.74 82.469 83.537994 82.469 80.854996C 82.469 79.259995 80.577 79.161995 78.188 79.01199L78.188 79.01199L70.926 78.51599zM85.651 55.825996C 86.546 56.970997 87.493004 58.562996 87.493004 60.851997C 87.493004 66.374 83.164 69.607994 76.896 69.607994C 75.302 69.607994 73.859 69.409996 72.964005 69.160995L72.964005 69.160995L71.32201 71.798L76.19701 72.09499C 84.80501 72.644 89.879005 72.89299 89.879005 79.507996C 89.879005 85.230995 84.855 88.463 76.19701 88.463C 67.19101 88.463 63.759007 86.173996 63.759007 82.244995C 63.759007 80.005 64.755005 78.813995 66.49601 77.16899C 64.85301 76.47499 64.30701 75.231995 64.30701 73.88799C 64.30701 72.79299 64.854004 71.798 65.75001 70.85199C 66.64601 69.90799 67.64101 68.96099 68.83401 67.86699C 66.396 66.67299 64.55601 64.08599 64.55601 60.40299C 64.55601 54.681988 68.337006 50.75299 75.949005 50.75299C 78.089005 50.75299 79.384 50.94999 80.52701 51.25099L80.52701 51.25099L90.23001 51.25099L90.23001 55.478992L85.65101 55.825993zM98.983 46.786C 96.146 46.786 94.504 45.142998 94.504 42.306C 94.504 39.473 96.145996 37.929 98.983 37.929C 101.869 37.929 103.51 39.472 103.51 42.306C 103.511 45.142998 101.869 46.786 98.983 46.786zM92.563 76.686L92.563 72.756996L95.102005 72.409C 95.798004 72.309 95.897 72.159996 95.897 71.411995L95.897 71.411995L95.897 56.784996C 95.897 56.238995 95.749 55.888996 95.25 55.740997L95.25 55.740997L92.563 54.795L93.11 50.767L103.411 50.767L103.411 71.412994C 103.411 72.21099 103.459 72.309 104.207 72.409996L104.207 72.409996L106.745 72.757996L106.745 76.687L92.563 76.687L92.563 76.686zM126.42 74.756C 124.279 75.798996 121.145996 76.745995 118.308 76.745995C 112.388 76.745995 110.15 74.35999 110.15 68.73499L110.15 68.73499L110.15 55.699993C 110.15 55.402992 110.15 55.20299 109.751 55.20299L109.751 55.20299L106.269 55.20299L106.269 50.77499C 110.648994 50.27599 112.389 48.08699 112.936 42.66399L112.936 42.66399L117.663994 42.66399L117.663994 49.73099C 117.663994 50.07799 117.663994 50.228992 118.062 50.228992L118.062 50.228992L125.076996 50.228992L125.076996 55.20399L117.663994 55.20399L117.663994 67.093994C 117.663994 70.02899 118.36099 71.173 121.047 71.173C 122.44199 71.173 123.882996 70.826 125.076996 70.378L125.076996 70.378L126.42 74.756z" stroke="none" fill="#31251C" fill-rule="nonzero" />
        <path d="M52.7 61.7L29.951 38.952003C 28.642 37.642002 26.517 37.642002 25.207 38.952003L25.207 38.952003L20.483002 43.676003L26.474003 49.668003C 27.868004 49.198 29.464003 49.513004 30.574003 50.624004C 31.690002 51.741005 32.003002 53.351006 31.521004 54.749004L31.521004 54.749004L37.296005 60.524006C 38.692005 60.043007 40.305004 60.354008 41.421005 61.471004C 42.981007 63.030006 42.981007 65.55701 41.421005 67.117004C 39.860004 68.677 37.334007 68.677 35.774006 67.117004C 34.601006 65.943 34.311005 64.22 34.905006 62.775005L34.905006 62.775005L29.519007 57.389004L29.518007 71.563C 29.899008 71.75101 30.257008 72.00101 30.574007 72.317C 32.134007 73.876 32.134007 76.402 30.574007 77.964005C 29.014008 79.523 26.486008 79.523 24.928007 77.964005C 23.368008 76.40201 23.368008 73.87601 24.928007 72.317C 25.314007 71.932 25.759007 71.641 26.235006 71.446L26.235006 71.446L26.235006 57.141C 25.759007 56.947 25.314007 56.656998 24.928007 56.27C 23.746008 55.089 23.462008 53.356 24.068007 51.905L24.068007 51.905L18.162006 45.996998L2.5630064 61.594997C 1.2520064 62.906 1.2520064 65.031 2.5630064 66.341995L2.5630064 66.341995L25.312008 89.09C 26.622007 90.399994 28.746008 90.399994 30.058008 89.09L30.058008 89.09L52.70001 66.446C 54.01101 65.136 54.01101 63.01 52.70001 61.7L52.70001 61.7L52.7 61.7z" stroke="none" fill="#F34F29" fill-rule="nonzero" />
        <path d="M1.58 37.928L126.42 37.928L126.42 90.071L1.5800018 90.071L1.58 37.928z" stroke="none" fill="none" />
	</g>
</g>
</svg>