<?xml version="1.0" standalone="no"?>
<!DOCTYPE svg PUBLIC "-//W3C//DTD SVG 1.0//EN" "http://www.w3.org/TR/2001/REC-SVG-20010904/DTD/svg10.dtd">
<svg xmlns="http://www.w3.org/2000/svg" xmlns:xlink="http://www.w3.org/1999/xlink" id="body_1" width="100" height="75">

<g transform="matrix(0.6666667 0 0 0.6637168 0 0)">
	<g transform="matrix(3.53125 0 0 3.53125 18.499998 -0)">
        <path d="M5.902 27.201L3.655 2L28.345 2L26.095 27.197L15.985 30L5.902 27.201" stroke="none" fill="#E44F26" fill-rule="nonzero" />
        <path d="M16 27.858L24.17 25.593L26.092 4.061L16 4.061L16 27.858" stroke="none" fill="#F1662A" fill-rule="nonzero" />
        <path d="M16 13.407L11.91 13.407L11.628 10.242L16 10.242L16 7.151L15.989 7.151L8.25 7.151L8.324 7.981L9.083 16.498L16 16.498L16 13.407" stroke="none" fill="#EBEBEB" fill-rule="nonzero" />
        <path d="M16 21.434L15.986 21.438L12.544 20.509L12.324 18.044L10.651 18.044L9.221 18.044L9.654 22.896L15.986 24.654L16 24.65L16 21.434" stroke="none" fill="#EBEBEB" fill-rule="nonzero" />
        <path d="M15.989 13.407L15.989 16.498L19.795 16.498L19.437 20.507L15.989 21.437L15.989 24.653L22.326 22.896L22.372 22.374L23.098 14.237L23.174 13.407L22.341 13.407L15.989 13.407" stroke="none" fill="#FFFFFF" fill-rule="nonzero" />
        <path d="M15.989 7.151L15.989 9.071L15.989 10.235L15.989 10.242L23.445 10.242L23.455 10.242L23.517 9.548L23.658 7.981L23.732 7.151L15.989 7.151" stroke="none" fill="#FFFFFF" fill-rule="nonzero" />
	</g>
</g>
</svg>