<?xml version="1.0" standalone="no"?>
<!DOCTYPE svg PUBLIC "-//W3C//DTD SVG 1.0//EN" "http://www.w3.org/TR/2001/REC-SVG-20010904/DTD/svg10.dtd">
<svg xmlns="http://www.w3.org/2000/svg" xmlns:xlink="http://www.w3.org/1999/xlink" id="body_1" width="100" height="75">

<g transform="matrix(0.6666667 0 0 0.6637168 0 0)">
	<g transform="matrix(0.8828125 0 0 0.8828125 18.499998 -0)">
        <path d="M1.408 1.408L126.591995 1.408L126.591995 126.592995L1.4079971 126.592995L1.408 1.408z" stroke="none" fill="#F0DB4F" fill-rule="nonzero" />
        <path d="M116.347 96.736C 115.43 91.025 111.706 86.228 100.675 81.755C 96.843 79.993996 92.571 78.732994 91.298004 75.828995C 90.846 74.13899 90.786 73.187 91.07201 72.163994C 91.893005 68.843994 95.856 67.80899 98.99701 68.760994C 101.02001 69.438995 102.93501 70.99799 104.09001 73.48499C 109.49201 69.98699 109.48101 70.009995 113.25301 67.605995C 111.87202 65.465 111.13501 64.477 110.23101 63.560997C 106.98201 59.931995 102.55501 58.062996 95.47501 58.205997L95.47501 58.205997L91.78701 58.683C 88.25301 59.576 84.88501 61.431 82.91001 63.918C 76.98401 70.642 78.67401 82.41 85.88501 87.253C 92.98901 92.585 103.42501 93.798 104.75801 98.784C 106.05501 104.888 100.27201 106.864 94.52401 106.161995C 90.28801 105.281 87.93201 103.128 85.38501 99.213C 80.69701 101.925995 80.69701 101.925995 75.87701 104.698C 77.020004 107.197 78.22101 108.327995 80.13701 110.493C 89.20501 119.690994 111.89701 119.239 115.96701 105.31699C 116.13201 104.839 117.22801 101.65099 116.34701 96.73599L116.34701 96.73599L116.347 96.736zM69.462006 58.943L57.753006 58.943L57.705006 89.215C 57.705006 95.653 58.038006 101.55499 56.991005 103.364C 55.278004 106.922 50.839005 106.480995 48.816006 105.791C 46.757004 104.779 45.710007 103.340004 44.497005 101.306C 44.164005 100.722 43.914005 100.27 43.830006 100.235L43.830006 100.235L34.310005 106.065C 35.893005 109.314 38.225006 112.134 41.212006 113.966C 45.674004 116.644005 51.671005 117.465004 57.94301 116.025C 62.02501 114.836 65.54701 112.373 67.39101 108.624C 70.05701 103.709 69.48501 97.76 69.461006 91.18C 69.521 80.445 69.462006 69.712 69.462006 58.943z" stroke="none" fill="#323330" fill-rule="nonzero" />
	</g>
</g>
</svg>