<?xml version="1.0" standalone="no"?>
<!DOCTYPE svg PUBLIC "-//W3C//DTD SVG 1.0//EN" "http://www.w3.org/TR/2001/REC-SVG-20010904/DTD/svg10.dtd">
<svg xmlns="http://www.w3.org/2000/svg" xmlns:xlink="http://www.w3.org/1999/xlink" id="body_1" width="100" height="100">

<g transform="matrix(0.6666667 0 0 0.6666667 0 0)">
	<g transform="matrix(2.34375 0 0 2.34375 0 0)">
        <path d="M39.755 53.777C 39.408005 53.777668 39.086254 53.59571 38.908 53.298L38.908 53.298L31.453001 40.863L17.510002 44.653C 17.073368 44.75806 16.62095 44.554474 16.410002 44.158L16.410002 44.158L0.117 13.534C -0.035787582 13.249272 -0.039206624 12.907714 0.10785043 12.619985C 0.2549076 12.332255 0.53373617 12.134953 0.854 12.092L0.854 12.092L14.687 10.232C 15.077591 10.177986 15.462756 10.36211 15.666 10.700001L15.666 10.700001L32.366 38.57L51.772003 33.293L45.302002 24.153C 45.111595 23.889452 45.063507 23.548918 45.173496 23.24295C 45.283485 22.936981 45.537376 22.705002 45.852 22.623L45.852 22.623L54.932 20.477C 55.30199 20.388834 55.689682 20.521566 55.927998 20.817999L55.927998 20.817999L63.784996 30.618C 63.99332 30.87736 64.056656 31.224348 63.9534 31.54058C 63.85014 31.856813 63.594234 32.09956 63.272995 32.186L63.272995 32.186L55.019997 34.436L62.243996 44.616C 62.42398 44.868633 62.47445 45.19129 62.380203 45.486816C 62.285957 45.782345 62.058006 46.016212 61.764996 46.118L61.764996 46.118L40.069996 53.706C 39.96935 53.74331 39.863285 53.763916 39.755997 53.767002L39.755997 53.767002L39.755 53.777zM33.427002 40.324L40.184002 51.592003L59.876 44.698L52.998 35.003002zM2.52 13.842L17.767 42.542L30.422 39.109L14.306002 12.275002zM47.77 24.208L53.822 32.742L61.349 30.695L54.801 22.541z" stroke="none" fill="#EF533F" fill-rule="nonzero" />
	</g>
</g>
</svg>