<?xml version="1.0" standalone="no"?>
<!DOCTYPE svg PUBLIC "-//W3C//DTD SVG 1.0//EN" "http://www.w3.org/TR/2001/REC-SVG-20010904/DTD/svg10.dtd">
<svg xmlns="http://www.w3.org/2000/svg" xmlns:xlink="http://www.w3.org/1999/xlink" id="body_1" width="100" height="75">

<g transform="matrix(0.6666667 0 0 0.6637168 0 0)">
	<g transform="matrix(0.8828125 0 0 0.8828125 18.499998 -0)">
        <path d="M87.259 100.139C 87.428 99.814 87.590004 99.527 87.728004 99.23C 87.815 99.04 87.949005 99.00201 88.13801 99.007C 89.27101 99.039 90.40401 99.074005 91.53801 99.08501C 92.50101 99.09501 93.46601 99.077 94.43001 99.06601C 95.51601 99.05301 96.602005 98.99601 97.68701 99.02701C 99.13201 99.06901 100.54001 99.352005 101.847015 99.99501C 103.40801 100.76401 104.58901 101.93501 105.39401 103.47801C 105.90801 104.46301 106.20601 105.50801 106.32501 106.61801C 106.49701 108.22601 106.38401 109.79701 105.874016 111.335014C 105.24201 113.24101 104.042015 114.70001 102.375015 115.793015C 101.09202 116.63402 99.68501 117.13101 98.17702 117.415016C 96.58102 117.71602 94.98002 117.61902 93.37902 117.624016C 91.623024 117.63102 89.86802 117.59302 88.11202 117.57301C 87.80502 117.570015 87.761024 117.51202 87.842026 117.21902L87.842026 117.21902L87.91702 116.94902C 88.08802 116.41102 88.18002 116.387024 88.72602 116.29702C 89.10402 116.23602 89.49602 116.09402 89.81302 115.88402C 89.99702 115.76202 90.07302 115.444016 90.14502 115.19902C 90.207016 114.98502 90.21002 114.75002 90.21202 114.52402C 90.23702 111.099014 90.26302 107.67502 90.27702 104.252014C 90.28002 103.38702 90.260025 102.52001 90.21202 101.65601C 90.178024 101.05101 89.85502 100.63702 89.13502 100.49401C 88.57502 100.38301 88.01102 100.29701 87.44802 100.19801L87.44802 100.19801L87.25902 100.139015L87.259 100.139zM103.33501 108.432C 103.25901 107.75 103.22201 107.062 103.100006 106.39C 102.80801 104.777 102.102005 103.372 100.86201 102.270996C 98.85701 100.492 96.44301 100.217995 93.91301 100.42999C 93.33701 100.47799 93.21301 100.674995 93.20401 101.26699C 93.19001 102.10699 93.17601 102.94699 93.17501 103.78699C 93.17101 106.45099 93.17101 109.11499 93.17501 111.778984C 93.17601 112.53699 93.18401 113.29498 93.20601 114.05099C 93.23001 114.82499 93.51101 115.47999 94.26901 115.77998C 95.46401 116.25298 96.721016 116.30898 97.97501 116.11598C 99.97801 115.80898 101.37901 114.64198 102.319016 112.89298C 103.06302 111.50498 103.27302 109.98998 103.335014 108.431984zM108.204 117.503C 108.18 117.088 108.350006 116.744995 108.560005 116.43C 108.617004 116.345 108.813 116.349 108.948006 116.322L108.948006 116.322L110.09401 116.095C 110.49901 116.009 110.712006 115.737 110.76901 115.340004C 110.807014 115.078 110.84301 114.813 110.846016 114.548004C 110.87102 112.451004 110.89502 110.354004 110.905014 108.257C 110.915016 106.157005 110.90701 104.05701 110.90701 101.957L110.90701 101.957L110.89801 101.556C 110.85701 100.881 110.53101 100.531 109.86101 100.432L109.86101 100.432L108.408005 100.211C 108.229004 100.187 108.164 100.101 108.229004 99.942C 108.341 99.671 108.448006 99.39 108.606 99.146C 108.665 99.05601 108.864006 99.021 108.998 99.024C 109.692 99.034004 110.386 99.086 111.08 99.085L111.08 99.085L117.121 99.048996C 118.285 99.048 119.409004 99.251 120.453 99.808C 121.602005 100.42 122.245 101.367 122.429 102.657C 122.621 104.012 122.21 105.154 121.22 106.061C 120.813 106.435 120.286 106.67899 119.814 106.982994L119.814 106.982994L119.66 107.078995C 120.09801 107.24 120.51501 107.379 120.921005 107.545C 122.10901 108.032 123.05401 108.793 123.55401 110.007996C 123.949005 110.966995 123.949005 111.966995 123.71501 112.961C 123.35101 114.517 122.32601 115.552 120.99301 116.335C 119.74201 117.07 118.38801 117.498 116.946014 117.57C 115.61601 117.637 114.280014 117.612 112.947014 117.627L112.947014 117.627L112.17501 117.631C 110.891014 117.602 109.60601 117.569 108.321014 117.534996L108.321014 117.534996L108.20402 117.503zM113.741005 111.414L113.754005 111.414C 113.754005 112.072 113.745 112.73 113.757 113.388C 113.76501 113.814 113.75 114.252 113.842 114.662C 113.98 115.275 114.26 115.828 114.948006 116.004005C 115.87701 116.243004 116.826004 116.29101 117.76601 116.128006C 118.94301 115.923004 119.882 115.33301 120.397 114.212006C 120.77901 113.379005 120.836006 112.496 120.705 111.59401C 120.531 110.406006 119.9 109.54401 118.851006 108.97901C 118.163 108.60801 117.42901 108.38101 116.647 108.35101C 115.771 108.318016 114.894005 108.31601 114.018005 108.28902C 113.772 108.28201 113.73801 108.40701 113.739006 108.60902C 113.744 109.543015 113.741005 110.47802 113.741005 111.41402zM115.606 106.939C 116.085 106.915 116.62701 106.908005 117.166 106.854004C 118.198 106.75101 118.925 106.232 119.304 105.245C 119.497 104.744 119.489 104.228004 119.494 103.707C 119.509 102.35 118.717 101.238 117.428 100.778C 116.433 100.423 115.407 100.417 114.375 100.445C 113.957 100.456 113.77 100.639 113.764 101.06L113.764 101.06L113.702 106.548996C 113.699005 106.767 113.79301 106.86099 114.005005 106.868L114.005005 106.868L115.606 106.938995z" stroke="none" fill="#94795D" fill-rule="nonzero" />
        <path d="M10.543 116.448L10.47 117.392C 9.79 117.392 9.163 117.387 8.536 117.394C 7.3550005 117.406 6.1740003 117.424995 4.9920006 117.44199L4.9920006 117.44199L4.8780007 117.449C 4.7090006 117.429 4.402001 117.429 4.3940005 117.379C 4.3440003 117.098 4.3600006 116.803 4.3730006 116.512C 4.3740005 116.479004 4.489001 116.437004 4.5560007 116.421L4.5560007 116.421L5.475001 116.215996C 6.048001 116.06699 6.250001 115.81999 6.277001 115.228C 6.308001 114.561 6.3390007 113.893 6.342001 113.226C 6.351001 111.584 6.341001 109.944 6.348001 108.302C 6.349001 107.918 6.216001 107.632 5.8580008 107.476006C 5.4320006 107.288 5.0040007 107.104004 4.573001 106.93001C 4.369001 106.84801 4.104001 106.80301 4.1280007 106.52901C 4.152001 106.25001 4.409001 106.17701 4.651001 106.12201C 5.653001 105.89301 6.656001 105.670006 7.6550007 105.42601C 7.9770007 105.34701 8.285001 105.21401 8.670001 105.08001C 8.6900015 105.28801 8.727001 105.48601 8.7230015 105.684006L8.7230015 105.684006L8.664001 106.62501C 8.663001 106.73101 8.718001 106.87301 8.797002 106.93201C 8.845002 106.96901 9.006001 106.90201 9.086001 106.840004C 9.9400015 106.19 10.844002 105.629005 11.875002 105.302C 13.472002 104.795 14.843002 105.265 15.803001 106.642C 16.141 107.127 16.142002 107.127 16.611002 106.788C 17.416002 106.203 18.258001 105.687004 19.200003 105.347C 21.268003 104.6 23.255003 105.548 23.974003 107.631C 24.236002 108.38699 24.336002 109.168 24.334003 109.965996L24.334003 109.965996L24.315004 115.26399C 24.314005 115.70099 24.459003 115.94999 24.875004 116.08599C 25.342003 116.23899 25.826004 116.343994 26.352003 116.481995L26.352003 116.481995L26.230003 117.393C 25.632004 117.393 25.082003 117.389 24.532003 117.394C 23.188004 117.406 21.844004 117.412994 20.501003 117.444C 20.267004 117.45 20.206003 117.392 20.194004 117.173C 20.155005 116.472 20.149004 116.473 20.809004 116.314995L20.809004 116.314995L21.031004 116.257996C 21.676004 116.08199 21.891005 115.883995 21.896004 115.229996C 21.911003 113.352 21.950005 111.468994 21.855003 109.59499C 21.756002 107.65099 20.213003 106.616 18.329002 107.11399C 17.714003 107.27599 17.157001 107.55999 16.639002 107.92799C 16.464003 108.05299 16.431002 108.19699 16.445002 108.41599C 16.498001 109.243996 16.531002 110.07299 16.538002 110.90199C 16.550001 112.35299 16.532001 113.80399 16.538002 115.256C 16.540003 115.843994 16.741001 116.069 17.322002 116.204994L17.322002 116.204994L18.185003 116.40399L18.345003 116.439995C 18.357002 116.715996 18.368004 116.992 18.355003 117.268C 18.347004 117.440994 18.213003 117.456 18.063004 117.452995C 17.224003 117.43199 16.384003 117.40399 15.545004 117.406C 14.524004 117.408 13.504004 117.437 12.484004 117.455L12.484004 117.455L12.244004 117.455C 12.244004 117.162 12.230004 116.882 12.2540045 116.603004C 12.259005 116.536 12.377005 116.442 12.458004 116.421005L12.458004 116.421005L13.4640045 116.20801C 13.891005 116.103004 14.095004 115.88401 14.119004 115.450005C 14.233005 113.44 14.315004 111.429 14.126004 109.420006C 14.0890045 109.03001 13.962005 108.634 13.800004 108.27501C 13.285004 107.13701 12.126004 106.66201 10.789004 107.004005C 10.154004 107.16601 9.581004 107.45701 9.039004 107.824005C 8.783005 107.99801 8.661004 108.228004 8.661004 108.519005C 8.661004 110.524 8.668004 112.52901 8.674004 114.533005L8.674004 114.533005L8.685003 115.30601C 8.697003 115.84501 8.926003 116.129005 9.461003 116.24501C 9.805003 116.32301 10.153004 116.37601 10.543003 116.44801L10.543003 116.44801L10.543 116.448z" stroke="none" fill="#50382B" fill-rule="nonzero" />
        <path d="M71.001 105.285C 71.156 106.039 71.153 106.717 70.599 107.231C 70.048996 107.742004 69.353 107.57 68.673996 107.456C 68.737 107.814 68.807 108.118004 68.840996 108.426C 69.088 110.715004 68.103 112.414 65.979996 113.385C 65.17799 113.751 64.326996 113.887 63.457996 113.957C 63.025997 113.991 62.647995 114.321 62.606995 114.676C 62.564995 115.036 62.790993 115.406006 63.242996 115.514C 63.775997 115.641 64.33199 115.677 64.879 115.74C 66.053 115.874 67.24 115.935 68.399994 116.145C 70.15399 116.461 71.132996 117.992 70.824 119.754C 70.548996 121.322 69.641 122.463 68.375 123.338C 66.242 124.815994 63.902 125.248 61.41 124.493996C 59.985 124.062 58.98 123.12499 58.633 121.60899C 58.459 120.84999 58.644 120.162994 59.215 119.647995C 59.894 119.037994 60.633 118.493996 61.344 117.91799L61.344 117.91799L61.574 117.68699L61.31 117.50199C 60.585003 117.15799 60.005 116.68699 59.780003 115.86899C 59.703003 115.59199 59.783 115.40999 60.018 115.26799C 60.418003 115.02699 60.816 114.78199 61.211002 114.53299C 61.397003 114.41699 61.581 114.29699 61.754 114.16299C 61.99 113.98299 61.969 113.84898 61.687 113.74499C 61.031002 113.50299 60.448 113.151985 59.996002 112.611984C 59.241 111.71098 59.027 110.637985 59.089 109.50498C 59.186 107.734985 60.147 106.568985 61.709 105.818985C 63.565998 104.927986 65.429 104.87199 67.322 105.68398C 68.021996 105.983986 68.76 106.04798 69.511 105.99598C 70.072 105.95598 70.562004 105.74398 71.001 105.28498L71.001 105.28498L71.001 105.285zM64.158 117.966C 62.763996 117.954 62.326996 118.12601 61.509 118.959C 60.593 119.893 60.598 121.188 61.511997 122.126C 62.205997 122.837 63.072 123.17 64.034996 123.27C 65.159996 123.385994 66.268 123.339 67.28999 122.77599C 68.37999 122.173 68.922 121.05299 68.676994 119.924995C 68.47399 118.993996 67.787994 118.56799 66.952995 118.323C 66.003 118.045 65.020996 117.992 64.158 117.965996zM61.42 109.05801C 61.470997 109.44501 61.491997 109.837006 61.578 110.216C 61.801 111.198006 62.228 112.061005 63.204998 112.498C 64.352 113.013 65.817 112.792 66.319 111.182C 66.663 110.079 66.621 108.984 66.206 107.908C 66.021 107.42799 65.723 107.021996 65.296 106.724C 64.299995 106.029 62.503 105.937 61.770996 107.473C 61.532997 107.972 61.439995 108.503 61.419994 109.058z" stroke="none" fill="#4F382B" fill-rule="nonzero" />
        <path d="M47.35 105.038C 47.386997 105.209 47.461 105.403 47.462997 105.598C 47.465996 105.969 47.426 106.34 47.405 106.711L47.405 106.711L47.405 107.033L47.718998 106.793C 48.579 106.085 49.503 105.482 50.579 105.157C 52.521 104.572 54.461 105.634995 55.093998 107.613C 55.334 108.365 55.428997 109.138 55.438 109.923996C 55.458 111.67 55.47 113.41599 55.488 115.161995C 55.494 115.788994 55.565998 115.90099 56.159 116.08199C 56.495 116.18499 56.842 116.256996 57.189 116.31099C 57.38 116.34099 57.461998 116.41599 57.452 116.60299L57.452 116.60299L57.454 116.77499C 57.447 117.497986 57.397 117.53098 56.696 117.528984C 55.017998 117.525986 53.341 117.53599 51.663 117.54999C 51.163 117.553986 51.162 117.568985 51.112 117.07499L51.112 117.07499L51.102 116.79099C 51.133 116.36499 51.143 116.368996 51.562 116.30699C 51.844 116.26499 52.124 116.19999 52.399002 116.12799C 52.682003 116.05499 52.818 115.84599 52.856003 115.565994C 52.875004 115.423996 52.9 115.282 52.899002 115.13999C 52.875004 113.231995 52.906002 111.32199 52.802002 109.41699C 52.718002 107.87599 51.542004 106.95799 49.995003 107.06299C 49.236004 107.11599 48.550003 107.36899 47.924004 107.805984C 47.511005 108.094986 47.428005 108.511986 47.430004 108.96098C 47.438004 110.74498 47.455006 112.528984 47.474003 114.31398C 47.478004 114.70498 47.489002 115.09598 47.526 115.48398C 47.565002 115.90798 47.714 116.07898 48.13 116.170975C 48.528 116.25897 48.934002 116.309975 49.359 116.380974L49.359 116.380974L49.395 116.70898C 49.409 117.473976 49.329 117.530975 48.586 117.52798C 46.850998 117.52097 45.115997 117.531975 43.382 117.55098C 43.109 117.55498 42.993 117.46898 43 117.20298L43 117.20298L42.996 117.08898C 42.951 116.39998 42.970997 116.373985 43.622997 116.26198L43.622997 116.26198L43.930996 116.19998C 44.636997 116.040985 44.817997 115.85298 44.827995 115.13598C 44.860996 112.864975 44.872993 110.59498 44.895996 108.32398C 44.898994 107.997986 44.775997 107.74498 44.471996 107.609985C 44.045998 107.42198 43.615997 107.24299 43.184998 107.06599C 42.947 106.96799 42.675 106.90598 42.665997 106.57699C 42.659996 106.344986 42.907997 106.13999 43.246998 106.07099C 43.927998 105.93299 44.614998 105.81799 45.288 105.648994C 45.957996 105.481995 46.615997 105.257996 47.35 105.037994L47.35 105.037994L47.35 105.038z" stroke="none" fill="#4F372B" fill-rule="nonzero" />
        <path d="M84.865 110.97C 84.833 113.091 84.282 114.806 82.782 116.093C 80.881996 117.726006 77.918 118.281006 75.494995 117.060005C 74.461 116.539 73.701 115.740005 73.20599 114.703C 72.44699 113.108 72.256996 111.431 72.65299 109.713005C 73.04499 108.01401 74.07399 106.783005 75.61399 105.98601C 77.19799 105.16701 78.86599 104.84701 80.62499 105.27701C 82.84999 105.82001 84.44899 107.63401 84.76699 109.94401C 84.82399 110.34901 84.84599 110.75901 84.86499 110.97001L84.86499 110.97001L84.865 110.97zM82.287994 112.119L82.201996 112.109C 82.201996 111.909004 82.213 111.709 82.2 111.509C 82.127 110.263 81.847 109.076004 81.125 108.033005C 80.44 107.045006 79.507 106.462006 78.293 106.37701C 76.934 106.281006 75.792 107.04101 75.391 108.42901C 74.789 110.51301 74.993 112.54401 76.051 114.45301C 76.512 115.28501 77.195 115.89901 78.11 116.22201C 79.903 116.853004 81.493004 116.03601 81.96 114.200005C 82.131996 113.522 82.182 112.813 82.288 112.119z" stroke="none" fill="#4F382B" fill-rule="nonzero" />
        <path d="M40.819 111.134C 40.782 112.656006 40.423 114.063 39.483 115.286C 38.476 116.596 37.092003 117.296005 35.518 117.591C 33.657 117.939 31.909002 117.623 30.414001 116.374C 29.704002 115.78 29.219002 115.019 28.899002 114.153C 28.374002 112.733 28.243002 111.278 28.566002 109.795C 28.911001 108.208 29.807001 106.994995 31.196003 106.181C 32.802002 105.242 34.535004 104.823 36.386 105.245C 38.766003 105.789 40.140003 107.340004 40.648003 109.688C 40.750004 110.162 40.764004 110.652 40.819004 111.134L40.819004 111.134L40.819 111.134zM38.213 112.138L38.144 112.128L38.144 111.841995C 38.105 110.44599 37.832 109.116 36.999 107.95599C 36.382 107.09499 35.556 106.55499 34.497 106.40399C 32.771 106.15799 31.643002 107.18199 31.269001 108.57299C 30.781 110.38999 30.934002 112.18499 31.689001 113.90799C 32.16 114.98199 32.904 115.81899 34.047 116.22499C 35.829002 116.857994 37.443 116.01999 37.894 114.190994C 38.06 113.521996 38.11 112.824 38.213 112.13799z" stroke="none" fill="#4F372B" fill-rule="nonzero" />
        <path d="M82.362 33.544C 83.589 37.091 84.471 40.711998 84.762 44.463997C 85.122 49.119995 84.958 53.743996 83.976 58.322998L83.976 58.322998L83.85 58.689C 83.542 58.69 83.228 58.651 82.927 58.697998C 80.384 59.098 77.844 59.511997 75.303 59.924C 72.676 60.35 70.047005 60.759 67.425 61.213C 66.496 61.373 65.346 61.182003 64.971 62.466L64.971 62.466L64.791 62.527L64.918 54.849L64.789 36.322998L66.013 36.113C 68.014 35.786 70.015 35.453 72.019 35.134C 74.409 34.754997 76.800995 34.385 79.19299 34.015C 80.24899 33.853 81.30599 33.702 82.36199 33.544L82.36199 33.544L82.362 33.544z" stroke="none" fill="#439934" fill-rule="nonzero" />
        <path d="M62.265 84.911C 60.974 83.801 59.638 82.740005 58.401 81.57201C 51.743 75.29201 46.872 67.899 44.473 58.986008C 43.812 56.534008 43.371998 54.041008 43.23 51.507008C 43.13 49.73301 42.987 47.944008 43.113 46.17901C 43.446 41.486008 44.125 36.83801 45.501 32.31701L45.501 32.31701L45.577 32.21201C 45.711 32.39001 45.903 32.548008 45.971 32.74901C 47.315002 36.70501 48.648003 40.66501 49.975002 44.628006C 54.144 57.079006 58.308002 69.533005 62.484 81.98201C 62.566 82.225006 62.777 82.42401 62.929 82.64301L62.929 82.64301L62.265 84.91101L62.265 84.911z" stroke="none" fill="#45A538" fill-rule="nonzero" />
        <path d="M82.362 33.544C 81.305 33.701 80.248 33.852997 79.193 34.015C 76.801 34.385 74.409004 34.755 72.019 35.134C 70.016 35.452 68.015 35.785 66.013 36.113L66.013 36.113L64.789 36.322998L64.779 35.524998C 64.738 34.869 64.67 34.212997 64.661 33.557L64.661 33.557L64.524 21.002998C 64.492004 18.383999 64.444 15.764998 64.391 13.146998C 64.358 11.519999 64.323 9.891998 64.25 8.266998C 64.21 7.393998 64.069 6.524998 64.013 5.6519985C 63.98 5.1499987 64.024 4.6439986 64.035 4.1399984C 64.659004 5.3489985 65.270004 6.5669985 65.911 7.7669983C 66.924 9.663999 68.539 11.061998 69.994 12.586998C 75.740005 18.617998 79.819 25.625998 82.362 33.544z" stroke="none" fill="#46A037" fill-rule="nonzero" />
        <path d="M64.792 62.527L64.972 62.466C 65.347 61.182 66.497 61.373 67.426 61.213C 70.048004 60.759003 72.677 60.350002 75.304 59.924C 77.845 59.513 80.385 59.099 82.928 58.697998C 83.229004 58.650997 83.543 58.69 83.851 58.689C 83.376 60.385 83.002 62.118 82.398994 63.767C 81.714 65.637 80.885994 67.463 80.006996 69.253C 78.69299 71.928 77.056 74.423996 75.154 76.711C 73.687996 78.473 72.054 80.104 70.417 81.713C 69.511 82.602 68.445 83.326996 67.451 84.127L67.451 84.127L67.19299 83.951L66.26599 83.159L65.30699 81.05499C 64.64599 78.592995 64.29999 76.08699 64.24199 73.538994L64.24199 73.538994L64.25999 73.11099L64.39098 71.256996C 64.43398 70.62399 64.49198 69.992 64.51898 69.35899C 64.61498 67.08299 64.70098 64.80499 64.791985 62.526993L64.791985 62.526993L64.792 62.527z" stroke="none" fill="#409433" fill-rule="nonzero" />
        <path d="M64.792 62.527C 64.702 64.805 64.616 67.084 64.519 69.362C 64.492 69.996 64.435 70.628 64.391 71.26L64.391 71.26L63.807 71.481C 62.509 67.66 61.21 63.879 59.94 60.089005C 57.838997 53.818005 55.764 47.538006 53.666 41.265007C 51.973 36.203007 50.265 31.144007 48.548 26.089008C 48.467 25.853008 48.237 25.667007 48.077 25.458008L48.077 25.458008L51.817 18.581009C 51.946003 18.804008 52.115 19.013008 52.196003 19.25301C 53.926003 24.373009 55.653004 29.49401 57.365 34.62001C 59.593002 41.29001 61.806 47.963013 64.032 54.63401C 64.120995 54.90001 64.267 55.14601 64.407 55.44501L64.407 55.44501L64.919 54.84901C 64.876 57.40901 64.834 59.96701 64.792 62.52701L64.792 62.52701L64.792 62.527z" stroke="none" fill="#4FAA41" fill-rule="nonzero" />
        <path d="M48.076 25.458C 48.237 25.667 48.467 25.853 48.547 26.089C 50.264 31.144001 51.972 36.202 53.665 41.265C 55.763 47.538 57.838 53.818 59.939003 60.088997C 61.209003 63.878998 62.508003 67.659 63.806004 71.480995L63.806004 71.480995L64.39001 71.259995L64.25901 73.11399L64.14001 73.54099C 63.937008 75.56999 63.766006 77.60299 63.518005 79.62799C 63.394005 80.64299 63.129005 81.63899 62.928005 82.64299C 62.777004 82.42399 62.565006 82.22499 62.483006 81.98199C 58.306007 69.53299 54.143005 57.078987 49.974007 44.627987C 48.647007 40.664986 47.313007 36.704987 45.970005 32.748985C 45.902004 32.547985 45.710007 32.389984 45.576004 32.211987L45.576004 32.211987L48.076004 25.457987L48.076 25.458z" stroke="none" fill="#4AA73C" fill-rule="nonzero" />
        <path d="M64.918 54.849L64.406 55.445C 64.266 55.146 64.119995 54.9 64.031 54.634C 61.804996 47.962997 59.592 41.29 57.364 34.62C 55.651997 29.494 53.925 24.373 52.195 19.252998C 52.114 19.012999 51.945 18.803999 51.815998 18.580997L51.815998 18.580997L56.440998 12.496998C 56.586998 12.690998 56.795 12.863997 56.87 13.082998C 58.154 16.842999 59.426 20.605999 60.691998 24.371998C 61.873997 27.889997 63.038 31.411999 64.234 34.923996C 64.314 35.158997 64.593 35.324997 64.779 35.524998L64.779 35.524998L64.789 36.322998L64.918 54.849z" stroke="none" fill="#57AE47" fill-rule="nonzero" />
        <path d="M64.779 35.525C 64.592 35.326 64.314 35.16 64.234 34.924C 63.039 31.411999 61.874 27.89 60.692 24.372C 59.426003 20.605999 58.154 16.843 56.870003 13.083C 56.795002 12.864 56.587 12.691 56.441 12.497C 57.945004 11.024 59.402 9.497999 60.967003 8.093C 62.358 6.8450003 63.476 5.5070004 63.528004 3.5340004L63.528004 3.5340004L63.638004 3.1410003L64.034004 4.1390004C 64.024 4.6430006 63.979004 5.149 64.012 5.6510005C 64.069 6.5240006 64.21 7.3930006 64.249 8.266001C 64.322 9.891001 64.357 11.519001 64.39 13.146001C 64.443 15.764001 64.491 18.383001 64.523 21.002L64.523 21.002L64.66 33.556C 64.670006 34.213 64.739006 34.869 64.77901 35.525L64.77901 35.525L64.779 35.525z" stroke="none" fill="#60B24F" fill-rule="nonzero" />
        <path d="M62.929 82.642C 63.13 81.638 63.395 80.642 63.519 79.627C 63.767002 77.603 63.938 75.569 64.141 73.54L64.141 73.54L64.192 73.532L64.242004 73.541C 64.3 76.089 64.646 78.595 65.30701 81.057C 65.172005 81.235 64.98301 81.392 64.911 81.592C 64.356 83.158005 63.832005 84.737 63.274002 86.302C 63.198 86.516 62.984 86.683 62.835003 86.87L62.835003 86.87L62.264004 84.91L62.929005 82.642006L62.929 82.642z" stroke="none" fill="#A9AA88" fill-rule="nonzero" />
        <path d="M62.835 86.871C 62.983997 86.683 63.197998 86.517006 63.274 86.303C 63.831997 84.738 64.355995 83.159004 64.910995 81.593C 64.981995 81.393005 65.172 81.236 65.307 81.058L65.307 81.058L66.266 83.162C 66.076996 83.43 65.815 83.673004 65.71 83.972L65.71 83.972L63.874 89.364C 63.798 89.581 63.541 89.733 63.367 89.916L63.367 89.916L62.835 86.871z" stroke="none" fill="#B6B598" fill-rule="nonzero" />
        <path d="M63.367 89.915C 63.54 89.732 63.798 89.58 63.874 89.363L63.874 89.363L65.71 83.971C 65.813995 83.672 66.076996 83.429 66.266 83.161L66.266 83.161L67.194 83.952C 66.746 84.395004 66.497 84.907005 66.647 85.554L66.647 85.554L66.365005 86.477C 66.23701 86.634995 66.051 86.772995 65.98801 86.953995C 65.34701 88.78999 64.73601 90.635994 64.090004 92.47099C 64.008 92.702995 63.781006 92.885994 63.622005 93.091995L63.622005 93.091995L63.367004 89.91499L63.367 89.915z" stroke="none" fill="#C2C1A7" fill-rule="nonzero" />
        <path d="M63.621 93.091C 63.781 92.885 64.007996 92.702 64.089 92.47C 64.735 90.635 65.347 88.789 65.987 86.953C 66.05 86.772 66.236 86.635 66.364 86.476006L66.364 86.476006L65.975 90.712006C 65.871 90.83201 65.721 90.937004 65.671 91.076004L65.671 91.076004L64.377 94.784004C 64.285995 95.037 64.112 95.263 63.975998 95.50001C 63.855 95.34201 63.638996 95.18901 63.628998 95.02501C 63.591 94.38301 63.617996 93.73601 63.621 93.09101L63.621 93.09101L63.621 93.091z" stroke="none" fill="#CECDB7" fill-rule="nonzero" />
        <path d="M63.977 95.501C 64.113 95.264 64.287 95.038 64.378 94.784996L64.378 94.784996L65.672 91.076996C 65.722 90.937 65.87299 90.83299 65.976 90.713L65.976 90.713L65.986 93.493L65.055 95.88L63.977 95.501z" stroke="none" fill="#DBDAC7" fill-rule="nonzero" />
        <path d="M65.055 95.88L65.986 93.493L66.178 96.31699L65.055 95.88z" stroke="none" fill="#EBE9DC" fill-rule="nonzero" />
        <path d="M66.646 85.554C 66.497 84.908 66.745 84.396 67.193 83.952L67.193 83.952L67.451004 84.128006L66.646 85.55401L66.646 85.554z" stroke="none" fill="#CECDB7" fill-rule="nonzero" />
        <path d="M64.242 73.542L64.19199 73.533L64.14099 73.541L64.259995 73.114L64.242 73.542z" stroke="none" fill="#4FAA41" fill-rule="nonzero" />
	</g>
</g>
</svg>