<?xml version="1.0" standalone="no"?>
<!DOCTYPE svg PUBLIC "-//W3C//DTD SVG 1.0//EN" "http://www.w3.org/TR/2001/REC-SVG-20010904/DTD/svg10.dtd">
<svg xmlns="http://www.w3.org/2000/svg" xmlns:xlink="http://www.w3.org/1999/xlink" id="body_1" width="100" height="75">

<g transform="matrix(0.6666667 0 0 0.6637168 0 0)">
	<g transform="matrix(0.8828125 0 0 0.8828125 18.499998 -0)">
        <path d="M2.001 90.458L6.1089997 90.458L6.1089997 74.235L12.469 88.378C 13.219 90.09 14.246 90.695 16.261 90.695C 18.276 90.695 19.264 90.09 20.014 88.378L20.014 88.378L26.374 74.235L26.374 90.458L30.482 90.458L30.482 74.262C 30.482 72.682 29.85 71.917 28.546 71.523C 25.425 70.549 23.331 71.392006 22.383 73.499L22.383 73.499L16.141998 87.457L10.098998 73.498C 9.189998 71.392 7.0569983 70.549 3.935998 71.522C 2.631998 71.917 1.999998 72.681 1.999998 74.261L1.999998 74.261L1.999998 90.458L2.001 90.458zM33.899 77.252L38.005997 77.252L38.005997 86.19C 37.968 86.675 38.161995 87.815 40.411995 87.851006C 41.559994 87.869 49.273994 87.851006 49.345993 87.851006L49.345993 87.851006L49.345993 77.20801L53.462994 77.20801C 53.481995 77.20801 53.458992 91.72201 53.458992 91.782005C 53.48099 95.36201 49.01799 96.13901 46.95999 96.199005L46.95999 96.199005L33.98799 96.199005L33.98799 93.435005C 34.00999 93.435005 46.950993 93.438 46.98299 93.434006C 49.62799 93.15501 49.31499 91.841 49.31399 91.399L49.31399 91.399L49.31399 90.321L40.582993 90.321C 36.520992 90.284 33.93299 88.511 33.899994 86.471C 33.897995 86.284004 33.988995 77.342 33.898994 77.252z" stroke="none" fill="#00618A" fill-rule="nonzero" />
        <path d="M56.63 90.458L68.442 90.458C 69.825005 90.458 71.169 90.169 72.235 89.669C 74.012 88.853 74.881 87.747 74.881 86.297L74.881 86.297L74.881 83.295C 74.881 82.11 73.894 81.003 71.958 80.267C 70.931 79.870995 69.666 79.661995 68.441 79.661995L68.441 79.661995L63.463 79.661995C 61.804 79.661995 61.014 79.161995 60.817 78.05599C 60.778 77.92399 60.778 77.81899 60.778 77.68699L60.778 77.68699L60.778 75.816986C 60.778 75.71198 60.778 75.60599 60.817 75.47498C 61.014 74.63198 61.449 74.39498 62.911003 74.262985L62.911003 74.262985L63.306004 74.236984L75.039 74.236984L75.039 71.498985L63.504 71.498985C 61.845 71.498985 60.976 71.60399 60.186 71.84099C 57.737 72.60499 56.669003 73.81599 56.669003 75.92299L56.669003 75.92299L56.669003 78.318985C 56.669003 80.16299 58.764004 81.74299 62.279003 82.111984C 62.675003 82.136986 63.069004 82.164986 63.464005 82.164986L63.464005 82.164986L67.731 82.164986C 67.889 82.164986 68.047005 82.164986 68.166 82.18999C 69.47 82.29499 70.022 82.53299 70.418 83.00599C 70.655 83.24299 70.733 83.48099 70.733 83.74299L70.733 83.74299L70.733 86.13999C 70.733 86.42899 70.536 86.79799 70.141 87.11399C 69.785995 87.42999 69.193 87.64099 68.403 87.69399L68.403 87.69399L67.968 87.71999L56.63 87.71999L56.63 90.45799L56.63 90.458zM100.511 85.692C 100.511 88.509 102.605 90.089005 106.831 90.406C 107.226 90.432 107.621 90.458 108.016 90.458L108.016 90.458L118.722 90.458L118.722 87.72L107.938 87.72C 105.528 87.72 104.62 87.114 104.62 85.665L104.62 85.665L104.62 71.497L100.512 71.497L100.512 85.692zM77.503 85.834L77.503 76.069C 77.503 73.589 79.244995 72.084 82.688995 71.609C 83.045 71.556 83.44199 71.53 83.797 71.53L83.797 71.53L91.59599 71.53C 91.992 71.53 92.34799 71.556 92.743 71.609C 96.187 72.084 97.92999 73.588 97.92999 76.069L97.92999 76.069L97.92999 85.834C 97.92999 87.848 97.189995 88.923996 95.48499 89.626L95.48499 89.626L99.53299 93.279L94.76199 93.279L91.48799 90.323L88.19199 90.532L83.797 90.532C 83.045 90.532 82.254 90.426994 81.382996 90.188995C 78.77 89.477 77.503 88.104 77.503 85.83399zM81.937 85.597C 81.937 85.729004 81.976 85.862 82.016 86.02C 82.253 87.155 83.323 87.787994 84.945 87.787994L84.945 87.787994L88.677 87.787994L85.249 84.69299L90.020004 84.69299L93.009 87.39299C 93.561005 87.09799 93.923004 86.649994 94.05 86.07299C 94.089005 85.94099 94.089005 85.80899 94.089005 85.67699L94.089005 85.67699L94.089005 76.30899C 94.089005 76.20399 94.089005 76.07099 94.05 75.93899C 93.812004 74.88299 92.743004 74.276985 91.16 74.276985L91.16 74.276985L84.944 74.276985C 83.124 74.276985 81.936 75.068985 81.936 76.30898L81.936 76.30898L81.936 85.596985z" stroke="none" fill="#E48E00" fill-rule="nonzero" />
        <path d="M122.336 66.952C 119.811 66.883 117.881996 67.118004 116.231995 67.813C 115.76299 68.011 115.01599 68.01601 114.939995 68.603004C 115.197 68.87401 115.23699 69.27701 115.44199 69.609C 115.83599 70.246 116.50099 71.1 117.093994 71.547005C 117.741 72.036 118.409 72.560005 119.104996 72.984C 120.34 73.738 121.71999 74.168 122.910995 74.922005C 123.61199 75.368004 124.308 75.928 124.993 76.43101C 125.33199 76.67801 125.558 77.06501 125.99899 77.22001L125.99899 77.22001L125.99899 77.14901C 125.76799 76.85501 125.70799 76.45101 125.495995 76.14301L125.495995 76.14301L124.562 75.209015C 123.648994 73.99702 122.491 72.93401 121.257996 72.05002C 120.27599 71.34502 118.077995 70.39202 117.668 69.249016L117.668 69.249016L117.596 69.17802C 118.292 69.099014 119.108 68.847015 119.75 68.67502C 120.83 68.38502 121.795 68.46002 122.91 68.17202L122.91 68.17202L124.41801 67.74002L124.41801 67.45402C 123.855 66.876015 123.452 66.110016 122.838005 65.58702C 121.231 64.21802 119.475006 62.85002 117.66801 61.70802C 116.66601 61.07602 115.42701 60.66502 114.364006 60.12902C 114.008 59.94802 113.380005 59.855022 113.143005 59.55402C 112.58401 58.84302 112.281006 57.94202 111.850006 57.11302C 110.950005 55.37802 110.064 53.48202 109.26501 51.65502C 108.72101 50.410023 108.365005 49.182022 107.686005 48.06502C 104.425 42.70402 100.91501 39.46802 95.478004 36.28802C 94.32101 35.611023 92.928 35.34502 91.457 34.99602L91.457 34.99602L89.087 34.85202C 88.605995 34.65102 88.104 34.06102 87.651 33.77502C 85.849 32.63702 81.229004 30.162022 79.895004 33.41702C 79.053 35.47102 81.15501 37.475018 81.906006 38.516018C 82.43301 39.246017 83.10901 40.06402 83.48601 40.885017C 83.73401 41.42502 83.77601 41.96602 83.989006 42.537018C 84.51001 43.943016 84.965004 45.47402 85.64001 46.773018C 85.98101 47.43102 86.35801 48.12402 86.78901 48.712017C 87.05301 49.072018 87.50701 49.232018 87.57801 49.789017C 87.13501 50.409016 87.10901 51.373016 86.86001 52.158016C 85.73801 55.697018 86.16101 60.096016 87.79401 62.715015C 88.295006 63.520016 89.475006 65.24402 91.09701 64.582016C 92.51601 64.00401 92.200005 62.213017 92.60601 60.632015C 92.69801 60.275017 92.641014 60.011017 92.82101 59.771015L92.82101 59.771015L92.82101 59.843014L94.114006 62.428013C 95.07101 63.969013 96.768005 65.57801 98.20701 66.665016C 98.95301 67.22802 99.54101 68.20302 100.505005 68.53201L100.505005 68.53201L100.505005 68.459015L100.434006 68.459015C 100.246 68.168015 99.95501 68.04801 99.715004 67.81301C 99.15301 67.26201 98.52801 66.57801 98.064 65.946014C 96.755005 64.17001 95.59901 62.225014 94.545006 60.201015C 94.04201 59.235016 93.605 58.169014 93.18101 57.185017C 93.017006 56.806015 93.019005 56.232018 92.67901 56.037018C 92.213005 56.75702 91.53001 57.34002 91.170006 58.191017C 90.59601 59.551018 90.522 61.21002 90.309006 62.930016L90.309006 62.930016L90.16501 63.001015C 89.16401 62.760014 88.81301 61.730015 88.44101 60.847015C 87.50101 58.614014 87.32601 55.017014 88.15401 52.446014C 88.368004 51.780014 89.33501 49.685013 88.94301 49.070015C 88.75601 48.457016 88.13901 48.103016 87.795006 47.633015C 87.368004 47.054016 86.94101 46.292015 86.646 45.622013C 85.87601 43.881012 85.517006 41.926014 84.708 40.165012C 84.32 39.323013 83.666 38.47201 83.128 37.724014C 82.533 36.894012 81.866 36.284016 81.404 35.282013C 81.24 34.926014 81.017 34.355015 81.26 33.989014C 81.337006 33.742012 81.448006 33.639015 81.692 33.558014C 82.108 33.237015 83.268 33.665012 83.702 33.845013C 84.854004 34.324013 85.815 34.779015 86.791 35.425014C 87.259 35.736015 87.732 36.336014 88.299 36.502014L88.299 36.502014L88.94501 36.502014C 89.95601 36.734013 91.089005 36.573013 92.033005 36.860016C 93.703 37.368015 95.199005 38.157017 96.55701 39.015015C 100.69601 41.629013 104.07901 45.349014 106.395004 49.787014C 106.767006 50.502014 106.929 51.183014 107.256004 51.941013C 107.91801 53.469013 108.75201 55.042015 109.41 56.537014C 110.067 58.028015 110.708 59.533012 111.637 60.774014C 112.125 61.426014 114.011 61.776012 114.868004 62.138012C 115.469 62.392014 116.453 62.657013 117.022 62.999012C 118.109 63.65501 119.163 64.43601 120.18201 65.154015C 120.69101 65.516014 122.258 66.30302 122.336006 66.95201L122.336006 66.95201L122.336 66.952zM90.237 39.593C 89.711 39.583 89.338 39.650997 88.944 39.737L88.944 39.737L88.944 39.808L89.016 39.808C 89.267 40.324997 89.71 40.656998 90.020996 41.100998L90.020996 41.100998L90.74 42.608997L90.811 42.538C 91.256 42.225 91.459 41.724 91.457 40.957996C 91.278 40.769997 91.252 40.534996 91.098 40.311996C 90.894 40.011997 90.496 39.843998 90.237 39.592995z" stroke="none" fill="#00618A" fill-rule="nonzero" />
	</g>
</g>
</svg>