<?xml version="1.0" standalone="no"?>
<!DOCTYPE svg PUBLIC "-//W3C//DTD SVG 1.0//EN" "http://www.w3.org/TR/2001/REC-SVG-20010904/DTD/svg10.dtd">
<svg xmlns="http://www.w3.org/2000/svg" xmlns:xlink="http://www.w3.org/1999/xlink" id="body_1" width="100" height="75">

<g transform="matrix(0.6666667 0 0 0.6637168 0 0)">
	<g transform="matrix(3.53125 0 0 3.53125 18.499998 -0)">
        <path d="M16 30C 15.622267 30.000141 15.251158 29.90081 14.924 29.712L14.924 29.712L11.5 27.685C 10.989 27.399 11.238 27.298 11.407 27.239C 11.950476 27.071098 12.470839 26.835945 12.955999 26.539C 13.038566 26.500805 13.135007 26.50799 13.2109995 26.557999L13.2109995 26.557999L15.841999 28.120998C 15.941467 28.173624 16.060532 28.173624 16.16 28.120998L16.16 28.120998L26.42 22.198997C 26.517675 22.14048 26.577324 22.034859 26.577 21.920998L26.577 21.920998L26.577 10.075C 26.57707 9.95937 26.516792 9.852086 26.418 9.792L26.418 9.792L16.158 3.875C 16.059599 3.8195825 15.939401 3.8195825 15.841001 3.875L15.841001 3.875L5.587 9.794C 5.4875174 9.852834 5.4260654 9.959427 5.4249997 10.075L5.4249997 10.075L5.4249997 21.916C 5.425285 22.029697 5.486817 22.134417 5.5859995 22.19L5.5859995 22.19L8.4 23.814C 9.924999 24.575998 10.858999 23.678 10.858999 22.776L10.858999 22.776L10.858999 11.085C 10.858998 11.005434 10.890606 10.929128 10.946866 10.872867C 11.003127 10.8166065 11.079433 10.784999 11.158999 10.785L11.158999 10.785L12.459 10.785C 12.538565 10.784999 12.614871 10.8166065 12.671132 10.872867C 12.727392 10.929128 12.759 11.005434 12.759 11.085L12.759 11.085L12.759 22.777C 12.759 24.812 11.651 25.977001 9.721 25.977001C 8.888378 25.991508 8.06881 25.76884 7.358 25.335001L7.358 25.335001L4.661 23.788C 3.994708 23.39999 3.5849116 22.687037 3.5849998 21.916L3.5849998 21.916L3.5849998 10.075C 3.583019 9.302674 3.9931772 8.587947 4.661 8.2L4.661 8.2L14.922 2.276C 15.59369 1.908519 16.406311 1.908519 17.078 2.276L17.078 2.276L27.338 8.2C 28.00421 8.587249 28.414373 9.299418 28.414999 10.07L28.414999 10.07L28.414999 21.916C 28.413858 22.68697 28.003925 23.3995 27.338 23.788L27.338 23.788L17.078 29.712C 16.750237 29.901106 16.378405 30.000444 16 30z" stroke="none" fill="#83CD29" fill-rule="nonzero" />
        <path d="M14.054 17.953C 14.054001 17.787313 14.188315 17.653 14.354 17.653L14.354 17.653L15.681 17.653C 15.827406 17.653475 15.952086 17.75956 15.976 17.904C 16.176 19.255 16.776 19.935999 19.489 19.935999C 21.65 19.935999 22.571001 19.446999 22.571001 18.3C 22.571001 17.639 22.310001 17.147999 18.951 16.819C 16.143 16.541 14.407 15.919001 14.407 13.675C 14.407 11.6050005 16.152 10.37 19.077 10.37C 22.364 10.37 23.991 11.511 24.196999 13.959C 24.20336 14.041606 24.175274 14.123165 24.1194 14.184341C 24.063528 14.245518 23.984842 14.280864 23.901999 14.282L23.901999 14.282L22.566 14.282C 22.428083 14.280069 22.309252 14.184344 22.278 14.049999C 21.959 12.629 21.178 12.174999 19.078 12.174999C 16.717999 12.174999 16.443998 12.997 16.443998 13.612999C 16.443998 14.358999 16.767998 14.576999 19.953999 14.997999C 23.106998 15.414999 24.605 16.005 24.605 18.220999C 24.605 20.456999 22.741 21.737 19.49 21.737C 14.995 21.743 14.054 19.682 14.054 17.953z" stroke="none" fill="#83CD29" fill-rule="nonzero" />
	</g>
</g>
</svg>