<?xml version="1.0" standalone="no"?>
<!DOCTYPE svg PUBLIC "-//W3C//DTD SVG 1.0//EN" "http://www.w3.org/TR/2001/REC-SVG-20010904/DTD/svg10.dtd">
<svg xmlns="http://www.w3.org/2000/svg" xmlns:xlink="http://www.w3.org/1999/xlink" id="body_1" width="100" height="75">

<g transform="matrix(0.6666667 0 0 0.6637168 0 0)">
	<g transform="matrix(0.8828125 0 0 0.8828125 18.499998 -0)">
        <path d="M2 38.5L126 38.5L126 82.21L64 82.21L64 89.5L36.44 89.5L36.44 82.21L2 82.21L2 38.5zM8.89 74.93L22.67 74.93L22.67 53.07L29.56 53.07L29.56 74.93L36.45 74.93L36.45 45.79L8.89 45.79zM43.33 45.79L43.33 82.21L57.11 82.21L57.11 74.93L70.89 74.93L70.89 45.79zM57.11 53.08L64 53.08L64 67.64L57.11 67.64zM77.78 45.79L77.78 74.93L91.56 74.93L91.56 53.07L98.45 53.07L98.45 74.93L105.34 74.93L105.34 53.07L112.229996 53.07L112.229996 74.93L119.119995 74.93L119.119995 45.79z" stroke="none" fill="#CB3837" fill-rule="nonzero" />
	</g>
</g>
</svg>