<?xml version="1.0" standalone="no"?>
<!DOCTYPE svg PUBLIC "-//W3C//DTD SVG 1.0//EN" "http://www.w3.org/TR/2001/REC-SVG-20010904/DTD/svg10.dtd">
<svg xmlns="http://www.w3.org/2000/svg" xmlns:xlink="http://www.w3.org/1999/xlink" id="body_1" width="100" height="75">

<defs>
    <radialGradient cx="-8756.076%" cy="62.492752%" r="1389.6533%" gradientUnits="objectBoundingBox" id="1">
        <stop offset="0%" stop-color="#FFFFFF" stop-opacity="1"/>
        <stop offset="50%" stop-color="#4C6B96" stop-opacity="1"/>
        <stop offset="100%" stop-color="#231F20" stop-opacity="1"/>
    </radialGradient>
<mask id="333">
<path  transform="matrix(1 0 0 1 0 0)"   d="M2.2700005 20.532C 2.2700005 25.40587 0.331798 30.085106 -3.1145487 33.531452C -6.5608954 36.9778 -11.24013 38.916 -16.114 38.916C -20.987871 38.916 -25.667105 36.9778 -29.113451 33.531452C -32.5598 30.085106 -34.498 25.40587 -34.498 20.532C -34.498 15.65813 -32.5598 10.978894 -29.113451 7.532548C -25.667105 4.086201 -20.987871 2.1479988 -16.114 2.1479988C -11.24013 2.1479988 -6.5608954 4.086201 -3.1145487 7.532548C 0.331798 10.978894 2.2700005 15.65813 2.2700005 20.532z" fill="white"/>
</mask>
</defs>

<g transform="matrix(0.6666667 0 0 0.6637168 0 0)">
	<g transform="matrix(3.53125 0 0 3.53125 18.499998 -0)">
        <path d="M2 16C 2 11.932423 8.268013 8.635 16 8.635C 23.731987 8.635 30 11.932423 30 16C 30 20.067577 23.731987 23.365 16 23.365C 8.268013 23.365 2 20.067577 2 16" stroke="none" mask="url(#333)" fill="url(#1)"  />
        <path d="M2.547 16C 2.547 12.234523 8.570112 9.182 16 9.182C 23.429888 9.182 29.453 12.234523 29.453 16C 29.453 19.765478 23.429888 22.818 16 22.818C 8.570112 22.818 2.547 19.765478 2.547 16" stroke="none" fill="#6280B6" fill-rule="nonzero" />
        <path d="M18.725 18.2L19.392 14.766001C 19.585428 14.16776 19.443464 13.511743 19.02 13.047001C 18.439331 12.634675 17.728323 12.448036 17.02 12.522001L17.02 12.522001L15.867 12.522001L16.198 10.822001C 16.210215 10.757914 16.193218 10.691718 16.151644 10.64144C 16.110067 10.591163 16.04824 10.562039 15.983 10.562001L15.983 10.562001L14.382999 10.562001C 14.278218 10.56197 14.188095 10.636165 14.167999 10.739001L14.167999 10.739001L13.459 14.385001C 13.404435 13.995174 13.238847 13.629283 12.981999 13.331001C 12.403178 12.751324 11.598365 12.456103 10.782 12.524001L10.782 12.524001L7.7 12.524001C 7.595218 12.52397 7.5050945 12.598165 7.4849997 12.701001L7.4849997 12.701001L6.0509996 20.081001C 6.0387855 20.145088 6.0557804 20.211285 6.0973563 20.261562C 6.138932 20.31184 6.200759 20.340963 6.266 20.341002L6.266 20.341002L7.869 20.341002C 7.973781 20.341032 8.063904 20.266838 8.084 20.164001L8.084 20.164001L8.431 18.379002L9.631 18.379002C 10.1608305 18.39315 10.689683 18.325695 11.198999 18.179C 11.628437 18.036919 12.021145 17.801636 12.348999 17.490002C 12.61767 17.245262 12.847027 16.96059 13.028999 16.646002L13.028999 16.646002L12.742 18.121002C 12.729786 18.18509 12.74678 18.251286 12.788356 18.301563C 12.829932 18.351841 12.891759 18.380964 12.957 18.381002L12.957 18.381002L14.557 18.381002C 14.661781 18.381033 14.7519045 18.306839 14.772 18.204002L14.772 18.204002L15.559 14.153002L16.653 14.153002C 17.119 14.153002 17.253 14.246002 17.293 14.286002C 17.332998 14.326002 17.393 14.451002 17.317999 14.855002L17.317999 14.855002L16.682999 18.120003C 16.670784 18.18409 16.68778 18.250286 16.729355 18.300564C 16.770931 18.350842 16.832758 18.379965 16.897999 18.380003L16.897999 18.380003L18.518 18.380003C 18.620686 18.376001 18.706778 18.301136 18.725 18.2zM11.33 15.366C 11.281091 15.78583 11.081804 16.173744 10.769 16.458C 10.376077 16.702408 9.915341 16.814877 9.454 16.779L9.454 16.779L8.742 16.779L9.257 14.127999L10.1779995 14.127999C 10.855 14.127999 11.127 14.273 11.2369995 14.393999C 11.406759 14.689414 11.440662 15.043753 11.33 15.366z" stroke="none" fill="#FFFFFF" fill-rule="nonzero" />
        <path d="M25.546 13.332C 24.967176 12.752321 24.162363 12.457101 23.345999 12.525L23.345999 12.525L20.255 12.525C 20.150217 12.524968 20.060095 12.599163 20.039999 12.702L20.039999 12.702L18.605999 20.082C 18.593784 20.146088 18.61078 20.212284 18.652355 20.262562C 18.693932 20.31284 18.755758 20.341963 18.821 20.342001L18.821 20.342001L20.428999 20.342001C 20.533781 20.342031 20.623903 20.267838 20.644 20.165L20.644 20.165L20.991 18.380001L22.191 18.380001C 22.72083 18.39415 23.249683 18.326693 23.759 18.18C 24.188437 18.037918 24.581144 17.802635 24.909 17.491001C 25.47047 16.984991 25.84879 16.307465 25.985 15.564001C 26.203218 14.792574 26.040117 13.963321 25.546 13.332zM23.879 15.365999C 23.83009 15.785829 23.630804 16.173744 23.317999 16.458C 22.924116 16.702682 22.462234 16.814823 22 16.778L22 16.778L21.29 16.778L21.805 14.127L22.726 14.127C 23.403 14.127 23.675 14.272 23.785 14.393C 23.95539 14.688534 23.989666 15.043311 23.879 15.366z" stroke="none" fill="#FFFFFF" fill-rule="nonzero" />
        <path d="M10.178 13.908C 10.613803 13.853134 11.053449 13.974838 11.399 14.246C 11.622659 14.590344 11.676098 15.018225 11.544001 15.407001C 11.486838 15.879484 11.258424 16.314611 10.902 16.630001C 10.472132 16.906876 9.963999 17.036716 9.454 17L9.454 17L8.476 17L9.076 13.911L10.178 13.908zM6.261 20.124L7.869 20.124L8.25 18.162L9.627 18.162C 10.133845 18.175833 10.639793 18.111408 11.127 17.971C 11.52685 17.838972 11.892338 17.619678 12.197 17.329C 12.724349 16.854614 13.079544 16.21878 13.207 15.521001C 13.411666 14.817242 13.268672 14.058075 12.822 13.477001C 12.28449 12.945341 11.540013 12.677549 10.787 12.745001L10.787 12.745001L7.7 12.745001z" stroke="none" fill="#000004" fill-rule="nonzero" />
        <path d="M14.387 10.782L15.987 10.782L15.6 12.744L17.021 12.744C 17.67365 12.6756935 18.329338 12.841565 18.871 13.212001C 19.235865 13.626723 19.352095 14.204444 19.176 14.728001L19.176 14.728001L18.509 18.162L16.89 18.162L17.525 14.897C 17.614574 14.644597 17.585167 14.365221 17.445 14.137C 17.21343 13.971111 16.927391 13.899603 16.645 13.937L16.645 13.937L15.37 13.937L14.548 18.165L12.948 18.165L14.387 10.782z" stroke="none" fill="#000004" fill-rule="nonzero" />
        <path d="M22.727 13.908C 23.162802 13.853134 23.602448 13.974837 23.948 14.246C 24.171658 14.590344 24.225098 15.018225 24.093 15.407001C 24.035835 15.879484 23.80742 16.314611 23.451 16.630001C 23.020294 16.907509 22.511002 17.037376 22 17L22 17L21.022 17L21.622 13.911L22.727 13.908zM18.81 20.124L20.418 20.124L20.799 18.162L22.176 18.162C 22.682848 18.175833 23.188795 18.111408 23.676 17.971C 24.075851 17.838972 24.44134 17.619678 24.746 17.329C 25.273348 16.854614 25.628542 16.21878 25.756 15.521001C 25.960667 14.817242 25.817673 14.058075 25.371 13.477001C 24.83349 12.945341 24.089014 12.677549 23.336 12.745001L23.336 12.745001L20.244 12.745001z" stroke="none" fill="#000004" fill-rule="nonzero" />
	</g>
</g>
</svg>