<?xml version="1.0" standalone="no"?>
<!DOCTYPE svg PUBLIC "-//W3C//DTD SVG 1.0//EN" "http://www.w3.org/TR/2001/REC-SVG-20010904/DTD/svg10.dtd">
<svg xmlns="http://www.w3.org/2000/svg" xmlns:xlink="http://www.w3.org/1999/xlink" id="body_1" width="100" height="75">

<g transform="matrix(0.6666667 0 0 0.6637168 0 0)">
	<g transform="matrix(0.22070312 0 0 0.22070312 18.499998 -0)">
        <path d="M40 142.48C 40 89.42752 83.00752 46.42 136.06 46.42L136.06 46.42L375.94 46.42C 428.99246 46.42 472 89.42752 472 142.48L472 142.48L472 369.53003C 472 422.5825 428.99246 465.59003 375.94 465.59003L375.94 465.59003L136.06 465.59003C 83.00752 465.59003 40 422.5825 40 369.53003L40 369.53003L40 142.48z" stroke="none" fill="#001D23" fill-rule="nonzero" />
        <path d="M60 142.48C 60 100.47322 94.05322 66.42 136.06 66.42L136.06 66.42L375.94 66.42C 417.94678 66.42 452 100.47322 452 142.48L452 142.48L452 369.53003C 452 411.5368 417.94678 445.59003 375.94 445.59003L375.94 445.59003L136.06 445.59003C 94.05322 445.59003 60 411.5368 60 369.53003L60 369.53003L60 142.48z" stroke="none" fill="#001D23" fill-rule="nonzero" />
        <path d="M147.92 166.71C 147.92 165.18001 148.17 164.71 149.44 164.71C 159.86 164.46 179.92 163.95001 199.23001 163.95001C 250.54001 163.95001 268.33002 192.40001 268.33002 220.09001C 268.33002 261.25 236.57002 278.77002 197.45001 278.77002L197.45001 278.77002L183 278.77002L183 328.77002C 183 330.04 182.49 330.77002 181 330.77002L181 330.77002L149.69 330.77002C 148.42 330.77002 147.92 330.01 147.92 328.77002L147.92 328.77002L147.92 166.71zM183 247.49C 187.32 247.74 190.11 247.74 197.23 247.74C 217.29999 247.74 233.29999 241.64 233.29999 220.81C 233.29999 204.81 222.37999 194.65 200.29999 194.65C 192.16998 194.65 185.29999 194.9 183.01999 195.15999z" stroke="none" fill="#01C8FE" fill-rule="nonzero" />
        <path d="M333.6 230.21C 321.66 230.21 317.85 234.53001 317.85 238.85C 317.85 243.17 321.16 246.47 335.85 252.06001C 366.59 263.24002 376.24 275.18002 376.24 293.21002C 376.24 317.35004 357.44 333.35004 323.90997 333.35004C 308.41998 333.35004 294.90997 330.55005 287.07996 326.24005C 285.9775 325.7496 285.27618 324.64642 285.29996 323.44006L285.29996 323.44006L285.29996 296C 285.29996 294.47 286.29996 293.71 287.29996 294.47C 298.98996 301.84 313.20996 304.63 324.63995 304.63C 336.57996 304.63 341.91995 301.33002 341.91995 296C 341.91995 291.17 337.59995 287.61 322.60995 282C 293.90994 271.33 284.50995 259.13 284.50995 240.84C 284.50995 221.03 300.50995 201.98 334.03995 201.98C 349.03995 201.98 360.71994 203.98 367.03995 207.06C 368.26807 207.6754 368.97662 208.99648 368.80994 210.36L368.80994 210.36L368.80994 235.76C 368.80994 237.29 367.80994 238.29999 366.26993 237.54C 358 233.26 345 230.21 333.6 230.21z" stroke="none" fill="#01C8FE" fill-rule="nonzero" />
	</g>
</g>
</svg>