<?xml version="1.0" standalone="no"?>
<!DOCTYPE svg PUBLIC "-//W3C//DTD SVG 1.0//EN" "http://www.w3.org/TR/2001/REC-SVG-20010904/DTD/svg10.dtd">
<svg xmlns="http://www.w3.org/2000/svg" xmlns:xlink="http://www.w3.org/1999/xlink" id="body_1" width="100" height="75">

<g transform="matrix(0.6666667 0 0 0.6637168 0 0)">
	<g transform="matrix(0.8828125 0 0 0.8828125 18.499998 -0)">
		<g>
            <path d="M75.4 64C 75.40001 67.148026 74.28701 69.83503 72.06102 72.06102C 69.83503 74.28701 67.148026 75.40001 64 75.4C 60.851982 75.40001 58.164974 74.28701 55.938984 72.06102C 53.712994 69.83503 52.6 67.148026 52.6 64C 52.6 60.851982 53.712994 58.164974 55.938984 55.938984C 58.164974 53.712994 60.851982 52.6 64 52.6C 67.148026 52.6 69.83503 53.712994 72.06102 55.938984C 74.28701 58.164974 75.40001 60.851982 75.4 64C 75.40001 64.13266 75.39769 64.26528 75.39305 64.39786" stroke="none" fill="#61DAFB" fill-rule="nonzero" />
            <path d="M107.3 45.2C 105.100006 44.4 102.8 43.600002 100.4 42.9C 101 40.5 101.5 38.100002 101.9 35.800003C 104 22.600002 101.700005 13.300003 95.3 9.700003C 93.4 8.600002 91.3 8.100002 88.9 8.100002C 81.9 8.100002 73 13.300002 64 22.000002C 55 13.300002 46.1 8.100002 39.1 8.100002C 36.699997 8.100002 34.6 8.600002 32.699997 9.700003C 26.299997 13.4000025 23.999996 22.700003 26.099997 35.800003C 26.499996 38.100002 26.999996 40.500004 27.599997 42.9C 25.199997 43.600002 22.899998 44.300003 20.699997 45.2C 8.199997 50 1.3999977 56.6 1.3999977 64C 1.3999977 71.4 8.299997 78 20.699997 82.8C 22.899998 83.600006 25.199997 84.4 27.599997 85.100006C 26.999996 87.50001 26.499996 89.90001 26.099997 92.200005C 23.999996 105.4 26.299997 114.700005 32.699997 118.3C 34.6 119.4 36.699997 119.9 39.1 119.9C 46.199997 119.9 55.1 114.700005 64 106C 73 114.7 81.9 119.9 88.9 119.9C 91.3 119.9 93.4 119.4 95.3 118.3C 101.700005 114.600006 104 105.3 101.9 92.200005C 101.5 89.9 101 87.50001 100.4 85.100006C 102.8 84.40001 105.1 83.700005 107.3 82.8C 119.8 78 126.600006 71.4 126.600006 64C 126.600006 56.6 119.8 50 107.3 45.2zM92.5 14.700001C 96.6 17.1 98 24.5 96.3 35C 96 37.1 95.5 39.3 94.9 41.6C 89.700005 40.399998 84.200005 39.6 78.4 39.1C 75 34.3 71.5 29.999998 68 26.099998C 75.4 18.8 82.9 13.799998 89 13.799998C 90.3 13.799998 91.5 14.099998 92.5 14.699998zM81.3 74C 79.5 77.2 77.4 80.4 75.200005 83.6C 71.50001 83.9 67.8 84 64.00001 84C 60.100006 84 56.40001 83.9 52.800007 83.6C 50.600006 80.4 48.600006 77.2 46.800007 74C 44.900005 70.7 43.100006 67.3 41.500008 64C 43.100006 60.7 44.90001 57.3 46.800007 54C 48.600006 50.8 50.70001 47.6 52.900005 44.4C 56.600006 44.100002 60.300007 44 64.100006 44C 68.00001 44 71.700005 44.1 75.3 44.4C 77.5 47.600002 79.5 50.800003 81.3 54C 83.200005 57.3 85 60.7 86.600006 64C 84.90001 67.3 83.200005 70.6 81.3 74zM89.600006 70.7C 91.100006 74.2 92.3 77.6 93.40001 81C 90.00001 81.8 86.40001 82.4 82.600006 82.9C 83.8 81 85.100006 79 86.200005 76.9C 87.4 74.8 88.50001 72.700005 89.600006 70.700005zM64.00001 97.799995C 61.600006 95.2 59.300007 92.399994 57.100006 89.49999C 59.400005 89.59999 61.700005 89.69999 64.00001 89.69999C 66.30001 89.69999 68.600006 89.59999 70.90001 89.49999C 68.70001 92.399994 66.40001 95.19999 64.00001 97.799995zM45.40001 82.799995C 41.60001 82.299995 38.000008 81.7 34.60001 80.899994C 35.70001 77.59999 36.90001 74.09999 38.40001 70.59999C 39.500008 72.59999 40.60001 74.69999 41.80001 76.69999C 43.00001 78.89999 44.200012 80.79999 45.40001 82.79999zM38.40001 57.299995C 36.90001 53.799995 35.70001 50.399994 34.60001 46.999996C 38.00001 46.199997 41.60001 45.599995 45.40001 45.099995C 44.20001 46.999996 42.90001 48.999996 41.80001 51.099995C 40.60001 53.199993 39.50001 55.299995 38.40001 57.299995zM64.00001 30.199995C 66.40001 32.799995 68.700005 35.599995 70.90001 38.499996C 68.600006 38.399998 66.30001 38.299995 64.00001 38.299995C 61.70001 38.299995 59.40001 38.399994 57.100006 38.499996C 59.300007 35.599995 61.600006 32.799995 64.00001 30.199997zM86.20001 51.199997L82.60001 45.199997C 86.40002 45.699997 90.000015 46.299995 93.40002 47.1C 92.30002 50.399998 91.10001 53.899998 89.60001 57.399998C 88.500015 55.3 87.40002 53.199997 86.20001 51.199997zM31.700012 34.999996C 30.000011 24.499996 31.400013 17.099997 35.50001 14.699997C 36.50001 14.099997 37.700012 13.799997 39.00001 13.799997C 45.00001 13.799997 52.50001 18.699997 60.00001 26.099998C 56.50001 29.899998 53.00001 34.3 49.600014 39.1C 43.800014 39.6 38.300014 40.5 33.100014 41.6C 32.500015 39.3 32.100014 37.1 31.700014 35zM7.0000114 63.999996C 7.0000114 59.299995 12.700011 54.299995 22.700012 50.6C 24.700012 49.8 26.900013 49.1 29.100012 48.5C 30.700012 53.5 32.700012 58.8 35.100014 64.1C 32.700012 69.4 30.600014 74.6 29.100014 79.6C 15.300014 75.6 7.0000134 69.6 7.0000134 64zM35.50001 113.299995C 31.400011 110.899994 30.000011 103.49999 31.700012 93C 32.00001 90.9 32.50001 88.7 33.100014 86.4C 38.300014 87.6 43.800014 88.4 49.600014 88.9C 53.000015 93.700005 56.500015 98 60.000015 101.9C 52.600014 109.200005 45.100014 114.200005 39.000015 114.200005C 37.700016 114.200005 36.500015 113.9 35.500015 113.3zM96.30001 93C 98.00001 103.5 96.60001 110.9 92.50001 113.3C 91.50001 113.9 90.30001 114.200005 89.00001 114.200005C 83.00001 114.200005 75.50001 109.3 68.00001 101.9C 71.50001 98.1 75.00001 93.700005 78.40001 88.9C 84.20001 88.4 89.70001 87.5 94.90001 86.4C 95.50001 88.700005 95.90001 90.9 96.30001 93zM105.30001 77.4C 103.30001 78.200005 101.10001 78.9 98.90001 79.5C 97.30001 74.5 95.30001 69.2 92.90001 63.9C 95.30001 58.600002 97.40001 53.4 98.90001 48.4C 112.70001 52.4 121.00001 58.4 121.00001 64C 121.00001 68.7 115.200005 73.7 105.30001 77.4z" stroke="none" fill="#61DAFB" fill-rule="nonzero" />
		</g>
	</g>
</g>
</svg>