<?xml version="1.0" standalone="no"?>
<!DOCTYPE svg PUBLIC "-//W3C//DTD SVG 1.0//EN" "http://www.w3.org/TR/2001/REC-SVG-20010904/DTD/svg10.dtd">
<svg xmlns="http://www.w3.org/2000/svg" xmlns:xlink="http://www.w3.org/1999/xlink" id="body_1" width="100" height="75">

<g transform="matrix(0.6666667 0 0 0.6637168 0 0)">
	<g transform="matrix(0.8828125 0 0 0.8828125 18.499998 -0)">
        <path d="M1.219 56.156C 1.219 56.858997 1.426 57.322998 1.542 57.774C 2.298 60.706997 3.923 63.224 5.851 65.52C 8.597 68.792 11.96 71.425995 15.405 73.903C 18.393 76.051 21.442 78.151 24.442 80.283C 24.956999 80.648994 25.444 81.07 26.003 81.519C 25.522 81.779 25.122 82.007996 24.706 82.218994C 20.747 84.227 16.938 86.478 13.426999 89.204994C 11.310999 90.84899 9.264999 92.59599 7.819999 94.879C 5.494999 98.550995 4.671999 102.463 6.4049993 106.64C 6.9109993 107.86 7.682999 108.914 8.771999 109.693C 9.124999 109.945 9.520999 110.195 9.933999 110.293C 10.991999 110.542 12.069999 110.705 13.140999 110.902L13.140999 110.902L16.174 110.9C 19.528 110.601 22.581 109.452 25.34 107.548004C 29.652 104.57201 32.557 100.582 33.806 95.461006C 34.714 91.739006 34.751 88.01301 33.681 84.30801C 33.582 83.964005 33.457 83.62701 33.327 83.29401C 33.197 82.961006 33.044 82.63701 32.864 82.22201L32.864 82.22201L39.739998 78.268005L39.843 78.356C 39.718 78.765 39.585 79.173004 39.472 79.586006C 38.655 82.57001 38.112 85.606 38.307 88.703C 38.515 92.003006 39.436 95.092 41.368 97.849C 42.93 100.079 46.652 100.162 48.312 97.923996C 48.901 97.129 49.472 96.298 49.901 95.410995C 51.022 93.09599 52.06 90.74 53.131 88.399994L53.131 88.399994L53.318 87.97199C 53.241 89.079994 53.151 90.05299 53.11 91.02699C 53.046 92.548 53.135002 94.05999 53.655 95.506996C 54.1 96.744995 54.857 97.67 56.274998 97.83299C 57.245 97.94399 58.017998 97.49999 58.731 96.93699C 59.844997 96.05799 60.75 94.97199 61.421997 93.73799C 63.322998 90.246994 65.274994 86.77699 66.998 83.19799C 68.862 79.32699 70.492004 75.34299 72.223 71.40599L72.223 71.40599L72.509 70.70799C 72.918 72.314995 73.203 73.88899 73.728004 75.37899C 74.338005 77.10799 75.093 78.79599 75.915 80.43699C 76.304 81.21199 76.259 81.71499 75.72 82.36499C 73.464005 85.08499 71.247 87.83799 69.028 90.58799C 68.537 91.19499 68.048 91.81299 67.639 92.47599C 67.392 92.87899 67.228 93.36999 67.159 93.83999C 67.02599 94.73799 67.58099 95.60399 68.542 95.81099C 69.42 95.99999 70.355 96.06999 71.25 96.00399C 74.347 95.77599 77.159 94.68899 79.645004 92.84699C 82.866005 90.46099 83.9 87.204994 83.12 83.34599C 82.909004 82.298996 82.536 81.28099 82.173004 80.271996C 82.01 79.81699 81.999 79.49799 82.296005 79.074C 84.871 75.396996 87.07101 71.495995 89.117004 67.505C 89.198006 67.348 89.281006 67.190994 89.423004 67.022995C 90.086006 70.47299 91.08401 73.798 92.872 76.814995C 91.96 77.69399 91.057 78.491 90.240005 79.368996C 88.441 81.30299 86.881004 83.40299 86.06701 85.964C 85.71701 87.06799 85.448006 88.189995 85.60401 89.368996C 85.84601 91.2 87.34601 92.39 89.14701 91.97299C 93.00101 91.08099 96.32801 89.26499 98.75901 86.04799C 100.39501 83.88199 100.544014 81.46599 99.85901 78.93499C 99.671005 78.24699 99.448006 77.56999 99.20801 76.78099C 100.159004 76.48599 101.086006 76.13199 102.045006 75.912994C 107.024 74.77699 111.949005 74.97499 116.74701 76.772995C 119.54801 77.823 121.81101 79.579994 123.15301 82.343994C 124.79201 85.72299 123.88601 88.92899 120.701004 91.064995C 120.40401 91.26399 120.064 91.421 119.818 91.67C 119.667 91.823 119.576004 92.129 119.613 92.34C 119.634 92.463 119.959 92.617 120.145996 92.615C 121.19299 92.606995 122.042 92.058 122.856995 91.493996C 124.898994 90.08099 126.38899 88.17999 126.70999 85.676994L126.70999 85.676994L126.772995 85.48899L126.69599 83.85899C 126.66499 83.76499 126.718994 83.672 126.71199 83.60099C 126.27799 79.95599 124.33099 77.12899 121.49899 74.912994C 118.218994 72.34799 114.34599 71.29199 110.24999 71.12499C 106.911995 70.98899 103.63099 71.48499 100.48499 72.62799C 99.58799 72.95299 98.69899 73.33799 97.79699 73.70099C 97.67599 73.48199 97.54599 73.27199 97.43899 73.054985C 96.512985 71.15898 95.39099 69.346985 95.14299 67.17299C 94.96699 65.62899 94.75099 64.08699 95.11799 62.55999C 95.470985 61.09099 95.93099 59.646988 96.36399 58.19799C 96.58699 57.451992 96.42999 57.03399 95.71799 56.69799C 95.469986 56.58099 95.19999 56.47899 94.931984 56.43999C 93.181984 56.18599 91.455986 56.33099 89.76099 56.82399C 89.16099 56.99899 88.72498 57.33499 88.59199 57.99899C 88.51599 58.37999 88.360985 58.744987 88.25299 59.12099C 87.80999 60.68399 87.49599 62.27699 86.77999 63.76599C 84.98599 67.50099 82.93799 71.09499 80.84199 74.662994C 80.61499 75.048 80.375984 75.425995 80.08999 75.893C 79.35399 74.353 78.568985 72.971 78.330986 71.351C 78.06199 69.519 77.84998 67.689995 78.305984 65.871994C 78.64498 64.51599 79.08798 63.184994 79.49599 61.846992C 79.68899 61.21099 79.59998 60.87699 79.02399 60.541992C 78.73299 60.372993 78.403984 60.222992 78.07599 60.173992C 76.26099 59.90499 74.47299 60.045994 72.721985 60.61199C 72.178986 60.78799 71.89398 61.138992 71.72798 61.698994C 71.23998 63.350994 70.82398 65.04299 70.138985 66.61399C 67.36498 72.97399 64.51099 79.300995 61.659985 85.62699C 61.064983 86.94799 60.367985 88.22299 59.696983 89.50899C 59.526985 89.834984 59.278984 90.12199 59.066982 90.427986C 58.896984 90.22699 58.830982 90.08899 58.83198 89.95099C 58.836983 89.137985 58.739983 88.30099 58.89498 87.51499C 59.363983 85.13699 59.90398 82.77199 60.47298 80.41599C 60.94298 78.46999 61.48998 76.54199 62.01098 74.60899C 62.185978 73.96199 62.18898 73.356995 61.72398 72.812996C 60.94298 71.90199 59.31098 71.701996 58.34298 72.404L58.34298 72.404L57.914978 72.645996L57.99798 71.95599C 58.201977 70.477 58.242977 69.00299 57.83698 67.54599C 57.33098 65.72999 56.03498 64.68499 54.150978 64.74299C 53.27298 64.76999 52.35098 64.91999 51.53798 65.23999C 48.11898 66.57999 45.48998 68.95299 43.25198 71.80799C 43.04898 72.06699 42.78098 72.30299 42.49498 72.46199C 39.60198 74.06599 36.69998 75.649994 33.79898 77.23999L33.79898 77.23999L30.56998 79.00899C 29.703981 78.18299 28.91698 77.32599 28.023981 76.59898C 25.296982 74.374985 22.525982 72.205986 19.77998 70.00698C 17.34598 68.05798 14.98798 66.027985 13.183979 63.44698C 11.841979 61.52698 10.976979 59.42598 10.893979 57.05198C 10.78898 54.026978 11.646979 51.262978 13.186979 48.68998C 15.15698 45.39798 17.843979 42.75598 20.79798 40.36298C 23.92298 37.83298 27.302979 35.68498 30.80598 33.72398C 35.70698 30.98098 40.747982 28.55298 46.15298 26.94998C 51.69498 25.30598 57.31798 24.364979 63.11798 25.020979C 65.39798 25.278978 67.611984 25.80098 69.64498 26.91598C 71.20198 27.76898 72.47898 28.885979 73.07298 30.631979C 73.65898 32.34998 73.64098 34.09098 73.234985 35.83598C 72.40999 39.36998 70.47498 42.282978 68.039986 44.88598C 64.04598 49.152977 59.173985 52.05798 53.688988 53.97698C 50.523987 55.083977 47.267986 55.778976 43.92399 56.05998C 41.19499 56.28898 38.522987 56.046978 35.938988 55.097977C 34.22799 54.468975 32.737988 53.506977 31.539988 52.110977C 31.325987 51.860977 31.051987 51.589977 30.652988 51.82398C 30.261988 52.053978 30.19299 52.42598 30.323988 52.80298C 30.542988 53.428978 30.744987 54.08098 31.085987 54.64098C 31.942987 56.04598 33.192986 57.06498 34.56899 57.93898C 37.21199 59.61998 40.16599 60.18498 43.22899 60.31598C 47.876987 60.51698 52.411987 59.82298 56.882988 58.575977C 63.265987 56.79598 68.81599 53.651978 73.26699 48.69198C 76.97299 44.561977 79.61999 39.900978 80.18699 34.27298C 80.46399 31.52598 80.16899 28.83498 78.88299 26.32898C 77.48799 23.61398 75.26999 21.594978 72.61799 20.20398C 68.75599 18.17898 64.58799 16.999979 60.285988 16.999979L60.285988 16.999979L55.975986 16.999979C 50.765987 16.999979 45.72899 18.49298 40.832985 20.27398C 37.126984 21.622978 33.492985 23.21498 29.964985 24.976978C 22.281984 28.815979 15.126985 33.444977 9.249985 39.80998C 6.321985 42.98098 3.8429847 46.47998 2.4169846 50.59998C 1.9999845 51.80598 1.6039846 53.09898 1.3059846 54.345978L1.3059846 54.345978L1.219 56.156zM29.058 92.169C 28.725 96.628 26.704 100.243 23.401001 103.171C 21.543001 104.817 19.412 105.989 16.93 106.401C 16.03 106.55 15.109 106.586 14.236 106.213C 12.991 105.681 12.712 104.576 12.688 103.398994C 12.651 101.522995 13.308 99.826996 14.209 98.213C 15.384999 96.10899 17.109 94.505 18.95 93.006996C 21.85 90.645996 24.996 88.647995 28.218 86.76199L28.218 86.76199L28.461 86.661995C 28.959 88.50199 29.196001 90.31899 29.058 92.16899zM54.216003 72.79C 53.981003 74.214005 53.687004 75.639 53.271004 77.019C 51.833004 81.796 49.986004 86.424995 47.989002 90.992C 47.620003 91.837 47.083004 92.607994 46.616 93.409C 46.544003 93.533 46.437 93.64 46.333 93.743C 45.755 94.313995 45.207 94.284 44.915 93.536995C 44.575 92.669 44.366 91.74 44.186 90.82099C 44.065002 90.203995 44.094 89.55599 44.056 88.92399C 44.095 84.429985 45.466 80.345985 47.792 76.54399C 48.751 74.97599 49.795 73.481995 51.39 72.48999C 51.88 72.18499 52.43 71.93999 52.985 71.78399C 53.835 71.54499 54.357002 71.93799 54.216 72.789986zM71.380005 94.658005L77.549 87.455C 77.80601 90.130005 73.259 95.47 71.380005 94.658005zM91.08301 89.811005C 90.64701 90.061005 90.172005 90.241005 89.725006 90.47201C 89.31601 90.684006 89.18101 90.47001 89.16901 90.11801C 89.161 89.87901 89.19601 89.62901 89.26201 89.39701C 90.09501 86.45901 91.628006 83.95101 93.90901 81.91101L93.90901 81.91101L94.069016 81.82901C 95.154015 84.86401 93.90002 88.19701 91.083015 89.81101z" stroke="none" fill="#CB6699" fill-rule="nonzero" />
	</g>
</g>
</svg>