<?xml version="1.0" standalone="no"?>
<!DOCTYPE svg PUBLIC "-//W3C//DTD SVG 1.0//EN" "http://www.w3.org/TR/2001/REC-SVG-20010904/DTD/svg10.dtd">
<svg xmlns="http://www.w3.org/2000/svg" xmlns:xlink="http://www.w3.org/1999/xlink" id="body_1" width="77" height="77">

<g transform="matrix(0.77 0 0 0.77 0 0)">
	<g transform="matrix(0.78125 0 0 0.78125 0 0)">
        <path d="M-2.3125E-08 8.9337L49.854 9.092299L64.020996 33.562298L78.452995 9.0922985L128 8.934599L64.166 119.0746L-2.3125E-08 8.9337zM126.98 9.571099L102.62 9.5918L64.144 75.6438L25.690998 9.591797L0.9419975 9.572397L64.153 117.462395zM101.831 9.563099L79.086 9.730679L64.033 34.377678L49.215996 9.730679L26.421995 9.562778L64.15299 74.03877zM25.997 9.3929L48.999 9.401601zM25.997 9.3929L48.999 9.401601" stroke="none" fill="none" />
        <path d="M25.997 9.3929L48.999 9.401601L64.035 34.3596L79.018005 9.403601L102.00001 9.397901L64.15001 75.0529L25.997 9.3929z" stroke="none" fill="#35495E" fill-rule="nonzero" />
        <path d="M0.91068 9.5686L25.97668 9.3975L64.127686 75.0555L101.97969 9.401497L127.08969 9.427797L64.12369 117.48779L0.91068 9.5686z" stroke="none" fill="#41B883" fill-rule="nonzero" />
	</g>
</g>
</svg>